<svg xmlns="http://www.w3.org/2000/svg" width="213" height="68" viewBox="0 0 213 68" fill="none" role="img" aria-label="detect-primary-camera: 278 downloads in the last year">
  <defs>
    <filter id="chipShadow" x="-30%" y="-30%" width="160%" height="160%">
      <feDropShadow dx="0" dy="2" stdDeviation="3" flood-color="#1f2328" flood-opacity="0.10" />
    </filter>
  </defs>
  <style>
    :root {
      --chip-bg: #ffffff;
      --chip-border: #e3e9f2;
      --value: #1f2328;
      --label: #656d76;
    }
    @media (prefers-color-scheme: dark) {
      :root {
        --chip-bg: #0f141b;
        --chip-border: #283446;
        --value: #e6edf3;
        --label: #8b949e;
      }
    }
    .chip { fill: var(--chip-bg); stroke: var(--chip-border); stroke-width: 1; }
    .chip-value { fill: var(--value); font: 800 21px 'Segoe UI', Ubuntu, Helvetica, Arial, sans-serif; letter-spacing: .2px; }
    .chip-label { fill: var(--label); font: 500 11px 'Segoe UI', Ubuntu, Helvetica, Arial, sans-serif; letter-spacing: .4px; }
    .chip-cta { fill: #588DF3; font: 700 12px 'Segoe UI', Ubuntu, Helvetica, Arial, sans-serif; letter-spacing: .3px; }
  </style>
  <g transform="translate(8,8)">
    <rect x="0" y="0" width="197" height="52" rx="12" class="chip" filter="url(#chipShadow)" />
    <rect x="13" y="10" width="32" height="32" rx="9" fill="#588DF3" fill-opacity="0.14" />
    <svg x="20.5" y="17.5" width="17" height="17" viewBox="0 0 16 16"><path d="M8.878.392a1.75 1.75 0 0 0-1.756 0l-5.25 3.045A1.75 1.75 0 0 0 1 4.951v6.098c0 .624.332 1.2.872 1.514l5.25 3.045a1.75 1.75 0 0 0 1.756 0l5.25-3.045c.54-.313.872-.89.872-1.514V4.951c0-.624-.332-1.2-.872-1.514L8.878.392ZM7.875 1.69a.25.25 0 0 1 .25 0l4.63 2.685L8 7.133 3.245 4.375l4.63-2.685ZM2.5 5.677v5.372c0 .09.047.171.125.216l4.625 2.683V8.432Zm6.25 8.271 4.625-2.683a.25.25 0 0 0 .125-.216V5.677L8.75 8.432Z" fill="#588DF3" /></svg>
    <text x="56" y="24" class="chip-value">278</text>
    <text x="103.28" y="23" class="chip-cta">npm ↗</text>
    <text x="56" y="39" class="chip-label">detect-primary-camera</text>
  </g>
</svg>