<svg xmlns="http://www.w3.org/2000/svg" width="190" height="68" viewBox="0 0 190 68" fill="none" role="img" aria-label="Total / year: 2,038 downloads in the last year">
  <defs>
    <filter id="chipShadow" x="-30%" y="-30%" width="160%" height="160%">
      <feDropShadow dx="0" dy="2" stdDeviation="3" flood-color="#1f2328" flood-opacity="0.10" />
    </filter>
  </defs>
  <style>
    :root {
      --chip-bg: #ffffff;
      --chip-border: #e3e9f2;
      --value: #1f2328;
      --label: #656d76;
    }
    @media (prefers-color-scheme: dark) {
      :root {
        --chip-bg: #0f141b;
        --chip-border: #283446;
        --value: #e6edf3;
        --label: #8b949e;
      }
    }
    .chip { fill: var(--chip-bg); stroke: var(--chip-border); stroke-width: 1; }
    .chip-value { fill: var(--value); font: 800 21px 'Segoe UI', Ubuntu, Helvetica, Arial, sans-serif; letter-spacing: .2px; }
    .chip-label { fill: var(--label); font: 500 11px 'Segoe UI', Ubuntu, Helvetica, Arial, sans-serif; letter-spacing: .4px; }
    .chip-cta { fill: #588DF3; font: 700 12px 'Segoe UI', Ubuntu, Helvetica, Arial, sans-serif; letter-spacing: .3px; }
  </style>
  <g transform="translate(8,8)">
    <rect x="0" y="0" width="174" height="52" rx="12" class="chip" filter="url(#chipShadow)" />
    <rect x="13" y="10" width="32" height="32" rx="9" fill="#588DF3" fill-opacity="0.14" />
    <svg x="20.5" y="17.5" width="17" height="17" viewBox="0 0 16 16"><path d="M2.75 14A1.75 1.75 0 0 1 1 12.25v-2.5a.75.75 0 0 1 1.5 0v2.5c0 .138.112.25.25.25h10.5a.25.25 0 0 0 .25-.25v-2.5a.75.75 0 0 1 1.5 0v2.5A1.75 1.75 0 0 1 13.25 14Zm5.47-2.47-3.75-3.75a.75.75 0 0 1 1.06-1.06l2.72 2.72V1.75a.75.75 0 0 1 1.5 0v7.69l2.72-2.72a.75.75 0 1 1 1.06 1.06l-3.75 3.75a.75.75 0 0 1-1.06 0Z" fill="#588DF3" /></svg>
    <text x="56" y="24" class="chip-value">2,038</text>
    <text x="122.18" y="23" class="chip-cta">npm ↗</text>
    <text x="56" y="39" class="chip-label">Total / year</text>
  </g>
</svg>