<svg xmlns="http://www.w3.org/2000/svg" width="1000" height="230" viewBox="0 0 1000 230" fill="none" role="img" aria-label="GitHub activity for sumitsahoo">
  <style>
    :root {
      --bg: #ffffff;
      --border: #d0d7de;
      --title: #1f2328;
      --value: #1f2328;
      --label: #656d76;
      --divider: #d8dee4;
      --bar: #588DF3;
      --track: #eef2f7;
    }
    @media (prefers-color-scheme: dark) {
      :root {
        --bg: #0d1117;
        --border: #30363d;
        --title: #e6edf3;
        --value: #e6edf3;
        --label: #8b949e;
        --divider: #21262d;
        --bar: #588DF3;
        --track: #161b22;
      }
    }
    .card { fill: var(--bg); stroke: var(--border); }
    .title { fill: var(--title); font: 600 20px 'Segoe UI', Ubuntu, Helvetica, Arial, sans-serif; }
    .title-accent { fill: #588DF3; }
    .subtitle { fill: var(--label); font: 400 12px 'Segoe UI', Ubuntu, Helvetica, Arial, sans-serif; }
    .gh-logo { fill: var(--title); }
    .stat-value { fill: var(--value); font: 700 26px 'Segoe UI', Ubuntu, Helvetica, Arial, sans-serif; }
    .stat-label { fill: var(--label); font: 400 12px 'Segoe UI', Ubuntu, Helvetica, Arial, sans-serif; letter-spacing: .3px; }
    .divider { stroke: var(--divider); stroke-width: 1; }
    .spark-label { fill: var(--label); font: 400 11px 'Segoe UI', Ubuntu, Helvetica, Arial, sans-serif; }
  </style>

  <rect class="card" x="1" y="1" width="998" height="228" rx="16" stroke-width="1.5" />

  <g transform="translate(40,44)">
    <path class="gh-logo" transform="translate(0,-18) scale(0.92)" d="M12 .297c-6.63 0-12 5.373-12 12 0 5.303 3.438 9.8 8.205 11.385.6.113.82-.258.82-.577 0-.285-.01-1.04-.015-2.04-3.338.724-4.042-1.61-4.042-1.61C4.422 18.07 3.633 17.7 3.633 17.7c-1.087-.744.084-.729.084-.729 1.205.084 1.838 1.236 1.838 1.236 1.07 1.835 2.809 1.305 3.495.998.108-.776.417-1.305.76-1.605-2.665-.3-5.466-1.332-5.466-5.93 0-1.31.465-2.38 1.235-3.22-.135-.303-.54-1.523.105-3.176 0 0 1.005-.322 3.3 1.23.96-.267 1.98-.399 3-.405 1.02.006 2.04.138 3 .405 2.28-1.552 3.285-1.23 3.285-1.23.645 1.653.24 2.873.12 3.176.765.84 1.23 1.91 1.23 3.22 0 4.61-2.805 5.625-5.475 5.92.42.36.81 1.096.81 2.22 0 1.606-.015 2.896-.015 3.286 0 .315.21.69.825.57C20.565 22.092 24 17.592 24 12.297c0-6.627-5.373-12-12-12" />
    <text x="34" y="0" class="title">GitHub <tspan class="title-accent">Activity</tspan></text>
  </g>
  <text x="960" y="44" text-anchor="end" class="subtitle">@sumitsahoo</text>

  <g transform="translate(40,96)">
    <text x="92" y="0" text-anchor="middle" class="stat-value">19,794</text>
    <text x="92" y="26" text-anchor="middle" class="stat-label">Total Contributions</text></g><line x1="224" y1="78" x2="224" y2="126" class="divider" /><g transform="translate(224,96)">
    <text x="92" y="0" text-anchor="middle" class="stat-value">2,217</text>
    <text x="92" y="26" text-anchor="middle" class="stat-label">This Year</text></g><line x1="408" y1="78" x2="408" y2="126" class="divider" /><g transform="translate(408,96)">
    <text x="92" y="0" text-anchor="middle" class="stat-value">272</text>
    <text x="92" y="26" text-anchor="middle" class="stat-label">This Month</text></g><line x1="592" y1="78" x2="592" y2="126" class="divider" /><g transform="translate(592,96)">
    <text x="92" y="0" text-anchor="middle" class="stat-value">2 days</text>
    <text x="92" y="26" text-anchor="middle" class="stat-label">Current Streak</text></g><line x1="776" y1="78" x2="776" y2="126" class="divider" /><g transform="translate(776,96)">
    <text x="92" y="0" text-anchor="middle" class="stat-value">96</text>
    <text x="92" y="26" text-anchor="middle" class="stat-label">Best Day</text></g>

  <text x="40" y="168" class="spark-label">Last 30 days</text>
  <rect x="40.0" y="197.4" width="27.8" height="6.6" rx="2" fill="var(--bar)" /><rect x="70.8" y="191.6" width="27.8" height="12.4" rx="2" fill="var(--bar)" /><rect x="101.5" y="197.4" width="27.8" height="6.6" rx="2" fill="var(--bar)" /><rect x="132.3" y="199.9" width="27.8" height="4.1" rx="2" fill="var(--bar)" /><rect x="163.1" y="197.4" width="27.8" height="6.6" rx="2" fill="var(--bar)" /><rect x="193.8" y="180.1" width="27.8" height="23.9" rx="2" fill="var(--bar)" /><rect x="224.6" y="177.6" width="27.8" height="26.4" rx="2" fill="var(--bar)" /><rect x="255.4" y="199.9" width="27.8" height="4.1" rx="2" fill="var(--bar)" /><rect x="286.1" y="202.0" width="27.8" height="2.0" rx="2" fill="var(--bar)" /><rect x="316.9" y="202.0" width="27.8" height="2.0" rx="2" fill="var(--bar)" /><rect x="347.7" y="198.2" width="27.8" height="5.8" rx="2" fill="var(--bar)" /><rect x="378.4" y="200.7" width="27.8" height="3.3" rx="2" fill="var(--bar)" /><rect x="409.2" y="196.6" width="27.8" height="7.4" rx="2" fill="var(--bar)" /><rect x="440.0" y="192.5" width="27.8" height="11.5" rx="2" fill="var(--bar)" /><rect x="470.7" y="200.7" width="27.8" height="3.3" rx="2" fill="var(--bar)" /><rect x="501.5" y="197.4" width="27.8" height="6.6" rx="2" fill="var(--bar)" /><rect x="532.3" y="202.0" width="27.8" height="2.0" rx="2" fill="var(--bar)" /><rect x="563.0" y="201.5" width="27.8" height="2.5" rx="2" fill="var(--bar)" /><rect x="593.8" y="190.8" width="27.8" height="13.2" rx="2" fill="var(--bar)" /><rect x="624.6" y="176.0" width="27.8" height="28.0" rx="2" fill="var(--bar)" /><rect x="655.3" y="196.6" width="27.8" height="7.4" rx="2" fill="var(--bar)" /><rect x="686.1" y="202.0" width="27.8" height="2.0" rx="2" fill="var(--bar)" /><rect x="716.9" y="202.0" width="27.8" height="2.0" rx="2" fill="var(--bar)" /><rect x="747.6" y="182.6" width="27.8" height="21.4" rx="2" fill="var(--bar)" /><rect x="778.4" y="184.2" width="27.8" height="19.8" rx="2" fill="var(--bar)" /><rect x="809.2" y="202.0" width="27.8" height="2.0" rx="2" fill="var(--bar)" /><rect x="839.9" y="202.0" width="27.8" height="2.0" rx="2" fill="var(--bar)" /><rect x="870.7" y="202.0" width="27.8" height="2.0" rx="2" fill="var(--bar)" /><rect x="901.5" y="192.5" width="27.8" height="11.5" rx="2" fill="var(--bar)" /><rect x="932.2" y="198.2" width="27.8" height="5.8" rx="2" fill="var(--bar)" />
</svg>