<svg xmlns="http://www.w3.org/2000/svg" width="814" height="68" viewBox="0 0 814 68" fill="none" role="img" aria-label="GitHub profile stats">
  <defs>
    <filter id="chipShadow" x="-30%" y="-30%" width="160%" height="160%">
      <feDropShadow dx="0" dy="2" stdDeviation="3" flood-color="#1f2328" flood-opacity="0.10" />
    </filter>
  </defs>
  <style>
    :root {
      --chip-bg: #ffffff;
      --chip-border: #e3e9f2;
      --value: #1f2328;
      --label: #656d76;
    }
    @media (prefers-color-scheme: dark) {
      :root {
        --chip-bg: #0f141b;
        --chip-border: #283446;
        --value: #e6edf3;
        --label: #8b949e;
      }
    }
    .chip { fill: var(--chip-bg); stroke: var(--chip-border); stroke-width: 1; }
    .chip-value { fill: var(--value); font: 800 21px 'Segoe UI', Ubuntu, Helvetica, Arial, sans-serif; letter-spacing: .2px; }
    .chip-label { fill: var(--label); font: 500 11px 'Segoe UI', Ubuntu, Helvetica, Arial, sans-serif; letter-spacing: .4px; }
  </style>
  <g transform="translate(8,8)">
    <rect x="0" y="0" width="150" height="52" rx="12" class="chip" filter="url(#chipShadow)" />
    <rect x="13" y="10" width="32" height="32" rx="9" fill="#588DF3" fill-opacity="0.14" />
    <svg x="20.5" y="17.5" width="17" height="17" viewBox="0 0 16 16"><path d="M2 5.5a3.5 3.5 0 1 1 5.898 2.549 5.508 5.508 0 0 1 3.034 4.084.75.75 0 1 1-1.482.235 4 4 0 0 0-7.9 0 .75.75 0 0 1-1.482-.236A5.507 5.507 0 0 1 3.102 8.05 3.493 3.493 0 0 1 2 5.5ZM11 4a3.001 3.001 0 0 1 2.22 5.018 5.01 5.01 0 0 1 2.56 3.012.749.749 0 0 1-.885.954.752.752 0 0 1-.549-.514 3.507 3.507 0 0 0-2.522-2.372.75.75 0 0 1-.574-.73v-.352a.75.75 0 0 1 .416-.672A1.5 1.5 0 0 0 11 5.5.75.75 0 0 1 11 4Zm-5.5-.5a2 2 0 1 0-.001 3.999A2 2 0 0 0 5.5 3.5Z" fill="#588DF3" /></svg>
    <text x="56" y="24" class="chip-value">19</text>
    <text x="56" y="39" class="chip-label">Followers</text>
    <rect x="162" y="0" width="150" height="52" rx="12" class="chip" filter="url(#chipShadow)" />
    <rect x="175" y="10" width="32" height="32" rx="9" fill="#588DF3" fill-opacity="0.14" />
    <svg x="182.5" y="17.5" width="17" height="17" viewBox="0 0 16 16"><path d="M8 .25a.75.75 0 0 1 .673.418l1.882 3.815 4.21.612a.75.75 0 0 1 .416 1.279l-3.046 2.97.719 4.192a.751.751 0 0 1-1.088.791L8 12.347l-3.766 1.98a.75.75 0 0 1-1.088-.79l.72-4.194L.818 6.374a.75.75 0 0 1 .416-1.28l4.21-.611L7.327.668A.75.75 0 0 1 8 .25Z" fill="#588DF3" /></svg>
    <text x="218" y="24" class="chip-value">80</text>
    <text x="218" y="39" class="chip-label">Total Stars</text>
    <rect x="324" y="0" width="150" height="52" rx="12" class="chip" filter="url(#chipShadow)" />
    <rect x="337" y="10" width="32" height="32" rx="9" fill="#588DF3" fill-opacity="0.14" />
    <svg x="344.5" y="17.5" width="17" height="17" viewBox="0 0 16 16"><path d="M2 2.5A2.5 2.5 0 0 1 4.5 0h8.75a.75.75 0 0 1 .75.75v12.5a.75.75 0 0 1-.75.75h-2.5a.75.75 0 0 1 0-1.5h1.75v-2h-8a1 1 0 0 0-.714 1.7.75.75 0 1 1-1.072 1.05A2.495 2.495 0 0 1 2 11.5Zm10.5-1h-8a1 1 0 0 0-1 1v6.708A2.486 2.486 0 0 1 4.5 9h8ZM5 12.25a.25.25 0 0 1 .25-.25h3.5a.25.25 0 0 1 .25.25v3.25a.25.25 0 0 1-.4.2l-1.45-1.087a.249.249 0 0 0-.3 0L5.4 15.7a.25.25 0 0 1-.4-.2Z" fill="#588DF3" /></svg>
    <text x="380" y="24" class="chip-value">70</text>
    <text x="380" y="39" class="chip-label">Public Repos</text>
    <rect x="486" y="0" width="150" height="52" rx="12" class="chip" filter="url(#chipShadow)" />
    <rect x="499" y="10" width="32" height="32" rx="9" fill="#588DF3" fill-opacity="0.14" />
    <svg x="506.5" y="17.5" width="17" height="17" viewBox="0 0 16 16"><path d="M6 2c.306 0 .582.187.696.471L10 10.731l1.304-3.26A.751.751 0 0 1 12 7h3.25a.75.75 0 0 1 0 1.5h-2.742l-1.812 4.528a.751.751 0 0 1-1.392 0L6 4.77 4.696 8.03A.75.75 0 0 1 4 8.5H.75a.75.75 0 0 1 0-1.5h2.742l1.812-4.529A.751.751 0 0 1 6 2Z" fill="#588DF3" /></svg>
    <text x="542" y="24" class="chip-value">19,797</text>
    <text x="542" y="39" class="chip-label">Contributions</text>
    <rect x="648" y="0" width="150" height="52" rx="12" class="chip" filter="url(#chipShadow)" />
    <rect x="661" y="10" width="32" height="32" rx="9" fill="#588DF3" fill-opacity="0.14" />
    <svg x="668.5" y="17.5" width="17" height="17" viewBox="0 0 16 16"><path d="M8 2c1.981 0 3.671.992 4.933 2.078 1.27 1.091 2.187 2.345 2.637 3.023a1.62 1.62 0 0 1 0 1.798c-.45.678-1.367 1.932-2.637 3.023C11.67 13.008 9.981 14 8 14c-1.981 0-3.671-.992-4.933-2.078C1.797 10.831.88 9.577.43 8.899a1.62 1.62 0 0 1 0-1.798c.45-.678 1.367-1.932 2.637-3.023C4.33 2.992 6.019 2 8 2Zm0 1.5c-1.473 0-2.825.742-3.955 1.715-1.124.967-1.954 2.096-2.366 2.717a.119.119 0 0 0 0 .136c.412.621 1.242 1.75 2.366 2.717C5.175 11.758 6.527 12.5 8 12.5c1.473 0 2.825-.742 3.955-1.715 1.124-.967 1.954-2.096 2.366-2.717a.119.119 0 0 0 0-.136c-.412-.621-1.242-1.75-2.366-2.717C10.825 4.242 9.473 3.5 8 3.5ZM8 6a2 2 0 1 1 0 4 2 2 0 0 1 0-4Z" fill="#588DF3" /></svg>
    <text x="704" y="24" class="chip-value">1,250</text>
    <text x="704" y="39" class="chip-label">Profile Views</text></g>
</svg>