<svg xmlns="http://www.w3.org/2000/svg" width="113" height="48" viewBox="0 0 113 48" fill="none" role="img" aria-label="Bluesky">
  <defs>
    <filter id="s" x="-20%" y="-30%" width="140%" height="160%">
      <feDropShadow dx="0" dy="1.5" stdDeviation="2.5" flood-color="#1f2328" flood-opacity="0.12" />
    </filter>
  </defs>
  <style>
    :root { --chip-bg: #ffffff; --chip-border: #e3e9f2; --chip-fg: #1f2328; }
    @media (prefers-color-scheme: dark) {
      :root { --chip-bg: #161b22; --chip-border: #283446; --chip-fg: #e6edf3; }
    }
    .chip { fill: var(--chip-bg); stroke: var(--chip-border); stroke-width: 1; }
    .chip-label { fill: var(--chip-fg); font: 600 13px 'Segoe UI', Ubuntu, Helvetica, Arial, sans-serif; letter-spacing: .1px; }
  </style>
  <rect x="6" y="6" width="101" height="36" rx="10" class="chip" filter="url(#s)" />
  <rect x="12" y="12" width="24" height="24" rx="7" fill="#0285FF" />
  <svg x="16.5" y="16.5" width="15" height="15" viewBox="0 0 24 24" preserveAspectRatio="xMidYMid meet"><g fill="#ffffff" fill-rule="nonzero"><path d="M5.202 2.857C7.954 4.922 10.913 9.11 12 11.358c1.087-2.247 4.046-6.436 6.798-8.501C20.783 1.366 24 .213 24 3.883c0 .732-.42 6.156-.667 7.037-.856 3.061-3.978 3.842-6.755 3.37 4.854.826 6.089 3.562 3.422 6.299-5.065 5.196-7.28-1.304-7.847-2.97-.104-.305-.152-.448-.153-.327 0-.121-.05.022-.153.327-.568 1.666-2.782 8.166-7.847 2.97-2.667-2.737-1.432-5.473 3.422-6.3-2.777.473-5.899-.308-6.755-3.369C.42 10.04 0 4.615 0 3.883c0-3.67 3.217-2.517 5.202-1.026"/></g></svg>
  <text x="45" y="28.5" class="chip-label">Bluesky</text>
</svg>