<svg xmlns="http://www.w3.org/2000/svg" width="115" height="48" viewBox="0 0 115 48" fill="none" role="img" aria-label="LinkedIn">
  <defs>
    <filter id="s" x="-20%" y="-30%" width="140%" height="160%">
      <feDropShadow dx="0" dy="1.5" stdDeviation="2.5" flood-color="#1f2328" flood-opacity="0.12" />
    </filter>
  </defs>
  <style>
    :root { --chip-bg: #ffffff; --chip-border: #e3e9f2; --chip-fg: #1f2328; }
    @media (prefers-color-scheme: dark) {
      :root { --chip-bg: #161b22; --chip-border: #283446; --chip-fg: #e6edf3; }
    }
    .chip { fill: var(--chip-bg); stroke: var(--chip-border); stroke-width: 1; }
    .chip-label { fill: var(--chip-fg); font: 600 13px 'Segoe UI', Ubuntu, Helvetica, Arial, sans-serif; letter-spacing: .1px; }
  </style>
  <rect x="6" y="6" width="103" height="36" rx="10" class="chip" filter="url(#s)" />
  <rect x="12" y="12" width="24" height="24" rx="7" fill="#0A66C2" />
  <svg x="16.5" y="16.5" width="15" height="15" viewBox="0 0 24 24" preserveAspectRatio="xMidYMid meet"><g fill="#ffffff" fill-rule="nonzero"><path d="M20.447 20.452h-3.554v-5.569c0-1.328-.027-3.037-1.852-3.037-1.853 0-2.136 1.445-2.136 2.939v5.667H9.351V9h3.414v1.561h.046c.477-.9 1.637-1.85 3.37-1.85 3.601 0 4.267 2.37 4.267 5.455v6.286zM5.337 7.433c-1.144 0-2.063-.926-2.063-2.065 0-1.138.92-2.063 2.063-2.063 1.14 0 2.064.925 2.064 2.063 0 1.139-.925 2.065-2.064 2.065zm1.782 13.019H3.555V9h3.564v11.452zM22.225 0H1.771C.792 0 0 .774 0 1.729v20.542C0 23.227.792 24 1.771 24h20.451C23.2 24 24 23.227 24 22.271V1.729C24 .774 23.2 0 22.222 0h.003z"/></g></svg>
  <text x="45" y="28.5" class="chip-label">LinkedIn</text>
</svg>