<svg xmlns="http://www.w3.org/2000/svg" width="115" height="48" viewBox="0 0 115 48" fill="none" role="img" aria-label="Medium">
  <defs>
    <filter id="s" x="-20%" y="-30%" width="140%" height="160%">
      <feDropShadow dx="0" dy="1.5" stdDeviation="2.5" flood-color="#1f2328" flood-opacity="0.12" />
    </filter>
  </defs>
  <style>
    :root { --chip-bg: #ffffff; --chip-border: #e3e9f2; --chip-fg: #1f2328; }
    @media (prefers-color-scheme: dark) {
      :root { --chip-bg: #161b22; --chip-border: #283446; --chip-fg: #e6edf3; }
    }
    .chip { fill: var(--chip-bg); stroke: var(--chip-border); stroke-width: 1; }
    .chip-label { fill: var(--chip-fg); font: 600 13px 'Segoe UI', Ubuntu, Helvetica, Arial, sans-serif; letter-spacing: .1px; }
  </style>
  <rect x="6" y="6" width="103" height="36" rx="10" class="chip" filter="url(#s)" />
  <rect x="12" y="12" width="24" height="24" rx="7" fill="#000000" />
  <svg x="16.5" y="16.5" width="15" height="15" viewBox="0 0 24 24" preserveAspectRatio="xMidYMid meet"><g fill="#ffffff" fill-rule="nonzero"><path d="M4.21 0A4.201 4.201 0 0 0 0 4.21v15.58A4.201 4.201 0 0 0 4.21 24h15.58A4.201 4.201 0 0 0 24 19.79v-1.093c-.137.013-.278.02-.422.02-2.577 0-4.027-2.146-4.09-4.832a7.592 7.592 0 0 1 .022-.708c.093-1.186.475-2.241 1.105-3.022a3.885 3.885 0 0 1 1.395-1.1c.468-.237 1.127-.367 1.664-.367h.023c.101 0 .202.004.303.01V4.211A4.201 4.201 0 0 0 19.79 0Zm.198 5.583h4.165l3.588 8.435 3.59-8.435h3.864v.146l-.019.004c-.705.16-1.063.397-1.063 1.254h-.003l.003 10.274c.06.676.424.885 1.063 1.03l.02.004v.145h-4.923v-.145l.019-.005c.639-.144.994-.353 1.054-1.03V7.267l-4.745 11.15h-.261L6.15 7.569v9.445c0 .857.358 1.094 1.063 1.253l.02.004v.147H4.405v-.147l.019-.004c.705-.16 1.065-.397 1.065-1.253V6.987c0-.857-.358-1.094-1.064-1.254l-.018-.004zm19.25 3.668c-1.086.023-1.733 1.323-1.813 3.124H24V9.298a1.378 1.378 0 0 0-.342-.047Zm-1.862 3.632c-.1 1.756.86 3.239 2.204 3.634v-3.634z"/></g></svg>
  <text x="45" y="28.5" class="chip-label">Medium</text>
</svg>