<svg xmlns="http://www.w3.org/2000/svg" width="132" height="48" viewBox="0 0 132 48" fill="none" role="img" aria-label="Team-BHP">
  <defs>
    <filter id="s" x="-20%" y="-30%" width="140%" height="160%">
      <feDropShadow dx="0" dy="1.5" stdDeviation="2.5" flood-color="#1f2328" flood-opacity="0.12" />
    </filter>
  </defs>
  <style>
    :root { --chip-bg: #ffffff; --chip-border: #e3e9f2; --chip-fg: #1f2328; }
    @media (prefers-color-scheme: dark) {
      :root { --chip-bg: #161b22; --chip-border: #283446; --chip-fg: #e6edf3; }
    }
    .chip { fill: var(--chip-bg); stroke: var(--chip-border); stroke-width: 1; }
    .chip-label { fill: var(--chip-fg); font: 600 13px 'Segoe UI', Ubuntu, Helvetica, Arial, sans-serif; letter-spacing: .1px; }
  </style>
  <rect x="6" y="6" width="120" height="36" rx="10" class="chip" filter="url(#s)" />
  <rect x="12" y="12" width="24" height="24" rx="7" fill="#C8102E" />
  <svg x="16.5" y="16.5" width="15" height="15" viewBox="0 0 24 24" preserveAspectRatio="xMidYMid meet"><g fill="#ffffff" fill-rule="nonzero"><path d="M18.92 6.01C18.72 5.42 18.16 5 17.5 5h-11c-.66 0-1.21.42-1.42 1.01L3 12v8c0 .55.45 1 1 1h1c.55 0 1-.45 1-1v-1h12v1c0 .55.45 1 1 1h1c.55 0 1-.45 1-1v-8l-2.08-5.99zM6.5 16c-.83 0-1.5-.67-1.5-1.5S5.67 13 6.5 13 8 13.67 8 14.5 7.33 16 6.5 16zm11 0c-.83 0-1.5-.67-1.5-1.5s.67-1.5 1.5-1.5 1.5.67 1.5 1.5-.67 1.5-1.5 1.5zM5 11l1.5-4.5h11L19 11H5z"/></g></svg>
  <text x="45" y="28.5" class="chip-label">Team-BHP</text>
</svg>