<svg xmlns="http://www.w3.org/2000/svg" width="1000" height="248" viewBox="0 0 1000 248" fill="none" role="img" aria-label="Career journey">
  <defs>
    <filter id="tileShadow" x="-30%" y="-30%" width="160%" height="160%">
      <feDropShadow dx="0" dy="1.5" stdDeviation="2.5" flood-color="#1f2328" flood-opacity="0.16" />
    </filter>
  </defs>
  <style>
    :root {
      --bg: #ffffff;
      --border: #d0d7de;
      --title: #1f2328;
      --company: #1f2328;
      --label: #656d76;
      --track: #d8dee4;
      --tile-stroke: #e4e7eb;
    }
    @media (prefers-color-scheme: dark) {
      :root {
        --bg: #0d1117;
        --border: #30363d;
        --title: #e6edf3;
        --company: #e6edf3;
        --label: #8b949e;
        --track: #2d333b;
        --tile-stroke: #c9d1d9;
      }
    }
    .card { fill: var(--bg); stroke: var(--border); }
    .title { fill: var(--title); font: 600 20px 'Segoe UI', Ubuntu, Helvetica, Arial, sans-serif; }
    .title-accent { fill: #588DF3; }
    .icon { fill: var(--title); }
    .range { fill: var(--label); font: 600 12px 'Segoe UI', Ubuntu, Helvetica, Arial, sans-serif; letter-spacing: .2px; }
    .company { fill: var(--company); font: 700 15px 'Segoe UI', Ubuntu, Helvetica, Arial, sans-serif; }
    .org { fill: var(--label); font: 600 10.5px 'Segoe UI', Ubuntu, Helvetica, Arial, sans-serif; }
    .role { fill: var(--label); font: 400 12px 'Segoe UI', Ubuntu, Helvetica, Arial, sans-serif; }
    .note { fill: #588DF3; font: 600 11px 'Segoe UI', Ubuntu, Helvetica, Arial, sans-serif; }
    .track { stroke: var(--track); }
    .tile { fill: #ffffff; stroke: var(--tile-stroke); stroke-width: 1; }
    .tile-future { stroke: #588DF3; stroke-width: 1.6; stroke-dasharray: 4 3; animation: ants 1.1s linear infinite; }

    .chevron {
      fill: none; stroke: #588DF3; stroke-width: 2.4;
      stroke-linecap: round; stroke-linejoin: round; opacity: .22;
      filter: drop-shadow(0 0 2.5px rgba(88,141,243,.85));
      animation: sweep 2.6s ease-in-out infinite;
    }
    @keyframes sweep {
      0%   { opacity: .22; }
      10%  { opacity: 1; stroke-width: 3; }
      26%  { opacity: .22; stroke-width: 2.4; }
      100% { opacity: .22; }
    }
    @keyframes ants { to { stroke-dashoffset: -14; } }

    @media (prefers-reduced-motion: reduce) {
      .chevron { animation: none; opacity: .7; }
      .tile-future { animation: none; }
    }
  </style>

  <rect class="card" x="1" y="1" width="998" height="246" rx="16" stroke-width="1.5" />

  <g transform="translate(40,44)">
    <path class="icon" transform="translate(0,-17) scale(0.95)" d="M20 6h-4V4c0-1.11-.89-2-2-2h-4c-1.11 0-2 .89-2 2v2H4c-1.11 0-1.99.89-1.99 2L2 19c0 1.11.89 2 2 2h16c1.11 0 2-.89 2-2V8c0-1.11-.89-2-2-2zm-6 0h-4V4h4v2z" />
    <text x="32" y="0" class="title">Career <tspan class="title-accent">Journey</tspan></text>
  </g>

  <line x1="116.66666666666667" y1="124" x2="883.3333333333334" y2="124" class="track" stroke-width="2" />
  <path d="M189.3,118 L197.3,124 L189.3,130" class="chevron" style="animation-delay:0.00s" /><path d="M342.7,118 L350.7,124 L342.7,130" class="chevron" style="animation-delay:0.16s" /><path d="M496.0,118 L504.0,124 L496.0,130" class="chevron" style="animation-delay:0.32s" /><path d="M649.3,118 L657.3,124 L649.3,130" class="chevron" style="animation-delay:0.48s" /><path d="M802.7,118 L810.7,124 L802.7,130" class="chevron" style="animation-delay:0.64s" />
  <text x="116.66666666666667" y="80" text-anchor="middle" class="range">Jun 2010</text><rect x="88.66666666666667" y="96" width="56" height="56" rx="14" class="tile" filter="url(#tileShadow)" /><svg x="99.31" y="106.64" width="34.72" height="34.72" viewBox="0 0 387.44122 294.42102" preserveAspectRatio="xMidYMid meet" overflow="visible"><title
     id="title3852">KIIT Seal</title>
  
  
  <g
     transform="translate(-0.3587572,-37.25)"
     id="g3841"
     style="fill:#17d059;fill-opacity:1">
    <path
       d="m 14.5,194.5 10,26 47.5,-16 -12.5,-34 z"
       id="path3782"
       style="fill:#17d059;fill-opacity:1;stroke:none" />
    <path
       d="M 49.904509,261.29817 68.21233,281.23556 107.85541,245.75242 83.178769,218.85869 z"
       id="path3784"
       style="fill:#17d059;fill-opacity:1;stroke:none" />
    <path
       d="m 108.5824,307.09228 23.02993,10.49581 25.26039,-49.41713 -31.53205,-13.46868 z"
       id="path3786"
       style="fill:#17d059;fill-opacity:1;stroke:none" />
    <path
       d="m 181.45411,326.40315 25.55745,0.26787 4.4745,-55.92894 -33.92636,-0.0204 z"
       id="path3788"
       style="fill:#17d059;fill-opacity:1;stroke:none" />
    <path
       d="m 258.8061,318.81747 22.93039,-10.75132 -15.42691,-52.43803 -31.08734,14.34063 z"
       id="path3790"
       style="fill:#17d059;fill-opacity:1;stroke:none" />
    <path
       d="m 322.52496,279.5888 17.39476,-20.1945 -31.44288,-41.20846 -24.85371,26.35419 z"
       id="path3792"
       style="fill:#17d059;fill-opacity:1;stroke:none" />
    <path
       d="m 366.77326,219.33833 9.61598,-25.01809 -44.54572,-24.53683 -13.76755,34.6037 z"
       id="path3794"
       style="fill:#17d059;fill-opacity:1;stroke:none" />
    <path
       d="m 333.12572,155.58548 49.67425,-5.83363 0,-14.67247 -49.14392,0 z"
       id="path3796"
       style="fill:#17d059;fill-opacity:1;stroke:none" />
    <path
       d="m 5.3587572,149.50185 49.6742518,5.83363 0,-20.5061 -49.6742518,0 z"
       id="path3798"
       style="fill:#17d059;fill-opacity:1;stroke:none" />
  </g>
  <g
     transform="translate(-0.3587572,-37.25)"
     id="g3836">
    <path
       d="m 276,85 a 142,142 0 1 1 -284,-7e-6"
       transform="matrix(0.97573489,0,0,0.97573489,61.805879,52.062535)"
       id="path3813"
       style="fill:none;stroke:#17d059;stroke-width:10;stroke-linecap:butt;stroke-linejoin:round;stroke-miterlimit:4;stroke-opacity:1;stroke-dasharray:none;stroke-dashoffset:0" />
    <path
       d="m 276,85 a 142,142 0 1 1 -284,-7e-6"
       transform="matrix(0.79050408,0,0,0.79050408,89.074032,68.057152)"
       id="path3815"
       style="fill:none;stroke:#17d059;stroke-width:12.65015602;stroke-linecap:butt;stroke-linejoin:round;stroke-miterlimit:4;stroke-opacity:1;stroke-dasharray:none;stroke-dashoffset:0" />
    <path
       d="m 276,85 a 142,142 0 1 1 -284,-7e-6"
       transform="matrix(0.6346358,0,0,0.6346358,110.07709,82.055955)"
       id="path3817"
       style="fill:none;stroke:#17d059;stroke-width:15.75706863;stroke-linecap:butt;stroke-linejoin:round;stroke-miterlimit:4;stroke-opacity:1;stroke-dasharray:none;stroke-dashoffset:0" />
  </g>
  <g
     transform="translate(-0.3587572,-37.25)"
     id="g3823">
    <path
       d="m 141.45867,42.25 -18.97613,34.140812 0,-33.913396 -31.500369,0 0,100.290414 31.500369,0 0,-30.92856 15.1809,30.47373 35.80163,0 L 149.80816,91.940374 177.89283,42.25 l -36.43416,0 z m 4.17474,8.186973 20.49422,0 -24.28944,42.526773 20.49422,41.844524 -19.48216,0 -20.74723,-42.071939 23.53039,-42.299358 z m -46.206863,0.08528 16.003203,0 0,84.655577 -16.003203,0 0,-84.655577 z"
       id="path2987"
       style="fill:#17d059;fill-opacity:1;stroke:none" />
    <path
       d="m 212.5,30 a 16.75,16.75 0 1 1 -33.5,0 16.75,16.75 0 1 1 33.5,0 z"
       transform="translate(-5.25,29.75)"
       id="path3767"
       style="fill:#17d059;fill-opacity:1;stroke:none" />
    <path
       d="m 175.75,78.362219 0,63.887781 31.25,0 0,-63.887781 -31.25,0 z m 8.3125,7.545367 15.625,0 0,49.237654 -15.625,0 0,-49.237654 z"
       id="path3771"
       style="fill:#17d059;fill-opacity:1;stroke:none" />
    <path
       d="m 247.49558,42.9675 0,30.332469 18.61514,0 -0.36695,67.388411 30.24381,0 0,-67.388411 17.14365,0 0,-30.332469 z m 8.92301,7.548547 50.25622,0 0,14.663761 -17.75,0 0,68.296272 -15.13122,0 0,-68.296272 -17.375,-0.222067 z"
       id="path3780"
       style="fill:#17d059;fill-opacity:1;stroke:none" />
    <path
       d="m 212.5,30 a 16.75,16.75 0 1 1 -33.5,0 16.75,16.75 0 1 1 33.5,0 z"
       transform="translate(30.75,29.75)"
       id="path3819"
       style="fill:#17d059;fill-opacity:1;stroke:none" />
    <path
       d="m 211.75,78.362219 0,63.887781 31.25,0 0,-63.887781 -31.25,0 z m 8.3125,7.545367 15.625,0 0,49.237654 -15.625,0 0,-49.237654 z"
       id="path3821"
       style="fill:#17d059;fill-opacity:1;stroke:none" />
  </g></svg><text x="116.66666666666667" y="182" text-anchor="middle" class="company">KIIT University</text><text x="116.66666666666667" y="200" text-anchor="middle" class="role">B.Tech, Computer</text><text x="116.66666666666667" y="215" text-anchor="middle" class="role">Science</text><text x="270" y="80" text-anchor="middle" class="range">Oct 2010 – Feb 2015</text><rect x="242" y="96" width="56" height="56" rx="14" class="tile" filter="url(#tileShadow)" /><svg x="252.64" y="106.64" width="34.72" height="34.72" viewBox="48 101.6 504 396.8" preserveAspectRatio="xMidYMid meet" overflow="visible"><path d="m504.4 257.3c2.9 10.7 13.8 17 24.5 14.2 10.7-2.9 17-13.8 14.2-24.5-2.9-10.7-13.8-17-24.5-14.2-10.7 2.9-17 13.9-14.2 24.5zm-27.2 21.5c7.3-2 11.6-9.4 9.7-16.7-2-7.3-9.4-11.6-16.7-9.7-7.3 2-11.6 9.4-9.7 16.7s9.4 11.6 16.7 9.7zm-40.1 7c5.3-1.4 8.5-6.9 7.1-12.3-1.4-5.3-6.9-8.5-12.3-7.1-5.3 1.4-8.5 6.9-7.1 12.3 1.4 5.3 6.9 8.5 12.3 7.1z" fill="#2b4c87"/><path d="m405.8 290.4c3.4-.9 5.4-4.4 4.5-7.8s-4.4-5.4-7.8-4.5-5.4 4.4-4.5 7.8 4.4 5.4 7.8 4.5z" fill="#2e4e88"/><path d="m489.5 216.7c5 8.7 16.2 11.7 24.9 6.7s11.7-16.2 6.7-24.9-16.2-11.7-24.9-6.7c-8.8 5.1-11.7 16.2-6.7 24.9zm-40.2 23.2c3.5 6.1 11.3 8.2 17.4 4.7s8.2-11.3 4.7-17.4-11.3-8.2-17.4-4.7c-6.2 3.5-8.3 11.3-4.7 17.4zm-28.7 6c-4.4 2.5-5.8 8.1-3.3 12.4 2.5 4.4 8.1 5.8 12.4 3.3 4.4-2.5 5.8-8.1 3.3-12.4-2.4-4.3-8-5.8-12.4-3.3zm-25.6 18.5c-2.8 1.6-3.8 5.2-2.2 8.1 1.6 2.8 5.3 3.8 8.1 2.2s3.8-5.3 2.2-8.1c-1.6-2.9-5.2-3.8-8.1-2.2z" fill="#1e3e70"/><path d="m487.4 180.9c6.4-6.4 6.4-16.8 0-23.2s-16.8-6.4-23.2 0-6.4 16.8 0 23.2 16.8 6.4 23.2 0zm-39.9 16.8c-4.6-4.6-12.1-4.6-16.7 0s-4.6 12.1 0 16.7 12.1 4.6 16.7 0 4.6-12.1 0-16.7zm-42.8 31.2c-3.2 3.2-3.2 8.4 0 11.6s8.4 3.2 11.6 0 3.2-8.4 0-11.6-8.4-3.2-11.6 0zm-20.3 31.9c2.1 2.1 5.6 2.1 7.7 0s2.1-5.6 0-7.7-5.6-2.1-7.7 0c-2.2 2.1-2.2 5.5 0 7.7z" fill="#184d89"/><path d="m429.8 153.4c7.4 4.3 16.9 1.7 21.1-5.7 4.3-7.4 1.7-16.9-5.7-21.1-7.4-4.3-16.9-1.7-21.1 5.7-4.3 7.4-1.7 16.8 5.7 21.1zm-27.7 26.1c-3 5.2-1.2 11.9 4 14.9s11.9 1.2 14.9-4 1.2-11.9-4-14.9-11.9-1.2-14.9 4zm-7.2 34.2c-3.5-2-7.9-.8-10 2.7-2 3.5-.8 7.9 2.7 10 3.5 2 7.9.8 9.9-2.7 2.1-3.5.9-7.9-2.6-10zm-16.8 29.2c-2.4-1.4-5.5-.6-6.8 1.8-1.4 2.4-.6 5.5 1.8 6.8 2.4 1.4 5.5.6 6.8-1.8 1.4-2.3.6-5.4-1.8-6.8z" fill="#3569a4"/><path d="m389.1 135.6c7.8 2.1 15.8-2.5 17.8-10.3 2.1-7.8-2.5-15.8-10.3-17.8-7.8-2.1-15.8 2.5-17.8 10.3-2.1 7.8 2.6 15.8 10.3 17.8zm-12.2 45.8c5.3 1.4 10.8-1.7 12.3-7.1 1.4-5.3-1.7-10.8-7.1-12.3-5.3-1.4-10.8 1.7-12.3 7.1-1.4 5.4 1.7 10.9 7.1 12.3zm-9.7 36.1c3.6 1 7.4-1.2 8.4-4.8s-1.2-7.4-4.8-8.4-7.4 1.2-8.4 4.8 1.2 7.4 4.8 8.4zm-10.8 22.5c-.6 2.4.8 4.9 3.2 5.6s4.9-.8 5.6-3.2c.6-2.4-.8-4.9-3.2-5.6-2.4-.6-4.9.8-5.6 3.2z" fill="#4b8dcb"/><path d="m345 129c7.5 0 13.7-6.1 13.7-13.7 0-7.5-6.1-13.7-13.7-13.7-7.5 0-13.7 6.1-13.7 13.7.1 7.6 6.2 13.7 13.7 13.7zm0 29.1c-5 0-9.1 4.1-9.1 9.1s4.1 9.1 9.1 9.1 9.1-4.1 9.1-9.1-4-9.1-9.1-9.1zm6.4 49.7c0-3.5-2.9-6.4-6.4-6.4s-6.4 2.9-6.4 6.4 2.9 6.4 6.4 6.4c3.6-.1 6.4-2.9 6.4-6.4zm-6.4 27.3c-2.3 0-4.1 1.8-4.1 4.1s1.8 4.1 4.1 4.1 4.1-1.8 4.1-4.1-1.8-4.1-4.1-4.1z" fill="#3398b3"/><path d="m300.5 134c6.8-1.8 10.8-8.8 9-15.6s-8.8-10.8-15.6-9-10.8 8.8-9 15.6 8.8 10.8 15.6 9zm2.2 39.9c1.2 4.4 5.7 7 10 5.8 4.4-1.2 7-5.7 5.8-10-1.2-4.4-5.7-7-10-5.8-4.4 1.2-7 5.7-5.8 10zm12.7 38.6c.8 3.2 4.1 5 7.2 4.2 3.2-.8 5-4.1 4.2-7.3s-4.1-5-7.2-4.2c-3.2.9-5 4.1-4.2 7.3zm10.3 29.8c.5 1.9 2.5 3.1 4.5 2.6 1.9-.5 3.1-2.5 2.6-4.5-.5-1.9-2.5-3.1-4.5-2.6-1.9.5-3.1 2.5-2.6 4.5z" fill="#02a496"/><path d="m258.5 150.5c5.7-3.3 7.6-10.5 4.3-16.2s-10.5-7.6-16.2-4.3-7.6 10.5-4.3 16.2c3.3 5.6 10.6 7.5 16.2 4.3zm23.7 41c3.5-2 4.7-6.5 2.7-9.9-2-3.5-6.5-4.7-10-2.7s-4.7 6.5-2.7 10c2.1 3.4 6.5 4.6 10 2.6zm19.4 33.5c2.6-1.5 3.5-4.9 2-7.5s-4.9-3.5-7.5-2-3.5 4.8-2 7.5c1.5 2.6 4.9 3.5 7.5 2zm15.7 20.9c-.9-1.5-2.8-2-4.4-1.2-1.5.9-2 2.8-1.2 4.4.9 1.5 2.8 2 4.4 1.2 1.6-1 2.1-2.9 1.2-4.4z" fill="#00aa75"/><path d="m222.1 177.4c4.3-4.3 4.3-11.2 0-15.5s-11.2-4.3-15.5 0-4.3 11.2 0 15.5c4.3 4.2 11.2 4.2 15.5 0zm33.5 24.4c-2.5-2.5-6.5-2.5-9 0s-2.5 6.5 0 9 6.5 2.5 9 0c2.5-2.4 2.5-6.5 0-9zm27.7 29.6c-2-2-5.1-2-7.1 0s-2 5.1 0 7.1 5.1 2 7.1 0c1.9-1.9 1.9-5.1 0-7.1zm20.6 23.9c-1.1-1.1-2.8-1.1-3.9 0s-1.1 2.8 0 3.9 2.8 1.1 3.9 0 1.1-2.9 0-3.9z" fill="#4fba69"/><path d="m179.7 216.3c4.8 2.8 10.9 1.1 13.7-3.7s1.1-10.9-3.7-13.7-10.9-1.1-13.7 3.7-1.1 10.9 3.7 13.7zm53 12.9c-2.6-1.5-6-.6-7.5 2s-.6 6 2 7.5 6 .6 7.5-2c1.5-2.7.6-6-2-7.5zm34.7 21c-2.2-1.3-5-.5-6.2 1.7-1.3 2.2-.5 5 1.7 6.2 2.2 1.3 5 .5 6.2-1.7 1.2-2.1.4-4.9-1.7-6.2z" fill="#7ec45f"/><path d="m530.1 278.1c-12.1 0-21.9 9.8-21.9 21.9s9.8 21.9 21.9 21.9 21.9-9.8 21.9-21.9-9.8-21.9-21.9-21.9zm-36.2 21.9c0-8.6-7-15.7-15.7-15.7s-15.7 7-15.7 15.7c0 8.6 7 15.7 15.7 15.7s15.7-7 15.7-15.7zm-56.2-10.7c-5.9 0-10.7 4.8-10.7 10.7s4.8 10.7 10.7 10.7 10.7-4.8 10.7-10.7-4.8-10.7-10.7-10.7z" fill="#4c609b"/><path d="m413.2 300c0-3.8-3.1-7-7-7-3.8 0-7 3.1-7 7 0 3.8 3.1 7 7 7s7-3.2 7-7z" fill="#54669f"/><path d="m529 328.5c-10.7-2.9-21.7 3.5-24.5 14.2-2.9 10.7 3.5 21.7 14.2 24.5 10.7 2.9 21.7-3.5 24.5-14.2s-3.6-21.6-14.2-24.5zm-58.9 19.1c7.3 2 14.8-2.4 16.7-9.7 2-7.3-2.4-14.8-9.7-16.7-7.3-2-14.8 2.4-16.7 9.7s2.4 14.7 9.7 16.7zm-38.2-14c5.3 1.4 10.8-1.7 12.3-7.1 1.4-5.3-1.7-10.8-7.1-12.3-5.3-1.4-10.8 1.7-12.3 7.1-1.4 5.4 1.7 10.9 7.1 12.3zm-29.4-11.7c3.4.9 6.9-1.1 7.8-4.5s-1.1-6.9-4.5-7.8-6.9 1.1-7.8 4.5 1.1 6.9 4.5 7.8z" fill="#746fa8"/><path d="m514.4 376.6c-8.7-5-19.8-2-24.9 6.7-5 8.7-2 19.8 6.7 24.9 8.7 5 19.9 2 24.9-6.7s2-19.8-6.7-24.9zm-43.1-3.8c3.5-6.1 1.4-13.9-4.7-17.4s-13.9-1.4-17.4 4.7-1.4 13.9 4.7 17.4 13.9 1.4 17.4-4.7zm-38.2-22.1c2.5-4.4 1-9.9-3.3-12.4-4.4-2.5-9.9-1-12.4 3.3-2.5 4.4-1 9.9 3.3 12.4 4.3 2.6 9.9 1.1 12.4-3.3zm-30-17.3c1.6-2.8.7-6.5-2.2-8.1-2.8-1.6-6.5-.7-8.1 2.2-1.6 2.8-.7 6.4 2.2 8.1 2.9 1.6 6.5.7 8.1-2.2z" fill="#99558e"/><path d="m464.2 419.1c-6.4 6.4-6.4 16.8 0 23.2s16.8 6.4 23.2 0 6.4-16.8 0-23.2-16.8-6.4-23.2 0zm-16.7-16.8c4.6-4.6 4.6-12.1 0-16.7s-12.1-4.6-16.7 0-4.6 12.1 0 16.7c4.6 4.7 12.1 4.7 16.7 0zm-31.2-31.2c3.2-3.2 3.2-8.4 0-11.6s-8.4-3.2-11.6 0-3.2 8.4 0 11.6 8.4 3.2 11.6 0zm-31.9-24.1c2.1 2.1 5.6 2.1 7.7 0s2.1-5.6 0-7.7-5.6-2.1-7.7 0c-2.2 2.1-2.2 5.5 0 7.7z" fill="#af3579"/><path d="m429.8 446.6c-7.4 4.3-9.9 13.7-5.7 21.1 4.3 7.4 13.7 9.9 21.1 5.7 7.4-4.3 9.9-13.7 5.7-21.1-4.3-7.4-13.7-10-21.1-5.7zm-8.8-37c-3-5.2-9.7-7-14.9-4s-7 9.7-4 14.9 9.7 7 14.9 4 7-9.7 4-14.9zm-26.1-23.3c3.5-2 4.7-6.5 2.7-10s-6.5-4.7-9.9-2.7c-3.5 2-4.7 6.5-2.7 9.9 2 3.6 6.4 4.8 9.9 2.8zm-21.8-37.9c-2.4 1.4-3.2 4.4-1.8 6.8s4.4 3.2 6.8 1.8 3.2-4.4 1.8-6.8c-1.4-2.3-4.4-3.2-6.8-1.8z" fill="#be266a"/><path d="m389.1 464.4c-7.8 2.1-12.4 10.1-10.3 17.8 2.1 7.8 10.1 12.4 17.8 10.3 7.8-2.1 12.4-10.1 10.3-17.8-2-7.8-10-12.4-17.8-10.3zm-7-26.4c5.3-1.4 8.5-6.9 7.1-12.3-1.4-5.3-6.9-8.5-12.3-7.1-5.3 1.4-8.5 6.9-7.1 12.3 1.4 5.3 6.9 8.5 12.3 7.1zm-6.5-50.6c-1-3.6-4.7-5.8-8.4-4.8-3.6 1-5.8 4.7-4.8 8.4 1 3.6 4.7 5.8 8.4 4.8 3.6-1 5.7-4.8 4.8-8.4zm-10.4-29.8c-.7-2.4-3.1-3.9-5.6-3.2-2.4.6-3.9 3.2-3.2 5.6s3.1 3.9 5.6 3.2c2.4-.7 3.9-3.2 3.2-5.6z" fill="#d4535c"/><path d="m345 471c-7.5 0-13.7 6.1-13.7 13.7 0 7.5 6.1 13.7 13.7 13.7 7.5 0 13.7-6.1 13.7-13.7s-6.1-13.7-13.7-13.7zm-9.1-38.2c0 5 4.1 9.1 9.1 9.1s9.1-4.1 9.1-9.1-4.1-9.1-9.1-9.1-9.1 4-9.1 9.1zm9.1-34.2c3.5 0 6.4-2.9 6.4-6.4s-2.9-6.4-6.4-6.4-6.4 2.9-6.4 6.4c.1 3.6 2.9 6.4 6.4 6.4zm0-41.9c-2.3 0-4.1 1.8-4.1 4.1s1.8 4.1 4.1 4.1 4.1-1.8 4.1-4.1c0-2.2-1.8-4.1-4.1-4.1z" fill="#e06550"/><path d="m300.5 466c-6.8-1.8-13.8 2.2-15.6 9s2.2 13.8 9 15.6 13.8-2.2 15.6-9-2.2-13.8-9-15.6zm12.3-45.7c-4.4-1.2-8.9 1.4-10 5.8-1.2 4.4 1.4 8.9 5.8 10 4.4 1.2 8.9-1.4 10-5.8s-1.5-8.9-5.8-10zm9.9-37c-3.2-.8-6.4 1-7.2 4.2s1 6.4 4.2 7.3c3.2.8 6.4-1 7.2-4.2s-1.1-6.4-4.2-7.3zm10.1-23.7c.5-1.9-.6-3.9-2.6-4.5-1.9-.5-3.9.6-4.5 2.6-.5 1.9.6 3.9 2.6 4.5 2 .5 4-.6 4.5-2.6z" fill="#f57f28"/><path d="m258.5 449.6c-5.7-3.3-12.9-1.3-16.2 4.3-3.3 5.7-1.3 12.9 4.3 16.2 5.7 3.3 12.9 1.3 16.2-4.3 3.3-5.7 1.4-13-4.3-16.2zm23.7-41.1c-3.5-2-7.9-.8-10 2.7-2 3.5-.8 7.9 2.7 9.9s7.9.8 10-2.7c2-3.4.8-7.9-2.7-9.9zm13.9-24c2.6 1.5 6 .6 7.5-2s.6-6-2-7.5-6-.6-7.5 2-.6 6 2 7.5zm20.1-34.7c-1.5-.9-3.5-.4-4.4 1.2-.9 1.5-.4 3.5 1.2 4.4 1.5.9 3.5.4 4.4-1.2.8-1.6.3-3.5-1.2-4.4z" fill="#f89829"/><path d="m206.6 422.7c-4.3 4.3-4.3 11.2 0 15.5s11.2 4.3 15.5 0 4.3-11.2 0-15.5-11.2-4.3-15.5 0zm40-33.5c-2.5 2.5-2.5 6.5 0 9s6.5 2.5 9 0 2.5-6.5 0-9-6.5-2.5-9 0zm29.6-27.7c-2 2-2 5.1 0 7.1s5.1 2 7.1 0 2-5.1 0-7.1-5.1-2-7.1 0zm27.7-20.6c-1.1-1.1-2.8-1.1-3.9 0s-1.1 2.8 0 3.9 2.8 1.1 3.9 0 1.1-2.9 0-3.9z" fill="#fdc126"/><path d="m180 383.4c-4.8 2.8-6.4 8.9-3.7 13.7 2.8 4.8 8.9 6.4 13.7 3.7 4.8-2.8 6.4-8.9 3.7-13.7-2.8-4.8-8.9-6.5-13.7-3.7zm47.3-22c-2.6 1.5-3.5 4.9-2 7.5s4.9 3.5 7.5 2 3.5-4.9 2-7.5c-1.6-2.6-4.9-3.5-7.5-2zm35.5-19.5c-2.2 1.3-2.9 4-1.7 6.2 1.3 2.2 4 2.9 6.2 1.7 2.2-1.3 2.9-4 1.7-6.2s-4-3-6.2-1.7z" fill="#fed626"/><path d="m159.6 268.2h16.1v61.8h-16.1zm9.9-27.6c-5-1.3-10.1 1.6-11.4 6.6s1.6 10.1 6.6 11.4 10.1-1.6 11.4-6.6-1.7-10.1-6.6-11.4zm55.9 90.7c-4.2 0-8-.7-11.3-2.2-3.4-1.5-6.1-3.7-8.1-6.6v38.4h-15.7v-92.7h15.6v8.6c2.1-3.1 4.8-5.5 8.1-7.2 3.4-1.8 7.1-2.6 11.3-2.6 3.9 0 7.6.7 11.2 2.2s6.8 3.6 9.5 6.5c2.7 2.8 4.9 6.2 6.6 10.2 1.6 4 2.5 8.4 2.5 13.3 0 5-.8 9.4-2.5 13.3s-3.9 7.3-6.6 10.1-5.9 5-9.4 6.5c-3.7 1.5-7.4 2.2-11.2 2.2zm-3.2-14.9c2.4 0 4.6-.5 6.6-1.4 2.1-.9 3.9-2.2 5.4-3.7 1.6-1.6 2.8-3.4 3.7-5.5s1.3-4.4 1.3-6.8-.4-4.7-1.3-6.8-2.1-3.9-3.7-5.5-3.4-2.8-5.4-3.7c-2.1-.9-4.3-1.4-6.6-1.4-2.4 0-4.7.5-6.8 1.4s-3.9 2.2-5.4 3.7c-1.5 1.6-2.7 3.4-3.6 5.6-.9 2.1-1.3 4.4-1.3 6.8s.4 4.7 1.3 6.8 2.1 3.9 3.6 5.5 3.3 2.8 5.4 3.7c2 .9 4.3 1.3 6.8 1.3zm44.2-48.2h15.6v9.5c1.5-3.7 3.8-6.4 6.7-8.1s6.4-2.6 10.4-2.6c2.1 0 4 .2 5.8.7s3.3 1 4.6 1.7l-5.7 15.6c-.8-.6-2-1.1-3.4-1.5-1.5-.4-3.1-.6-4.8-.6-4 0-7.3 1.1-9.7 3.4s-3.7 6-3.7 11.2v32.6h-15.7zm78 63.1c-4.7 0-9-.8-12.9-2.5-4-1.7-7.4-4-10.4-6.9-2.9-2.9-5.2-6.4-6.9-10.2-1.6-3.9-2.5-8.1-2.5-12.5s.8-8.6 2.5-12.5c1.6-3.9 3.9-7.3 6.9-10.2 2.9-2.9 6.4-5.2 10.4-6.9s8.3-2.5 12.9-2.5 8.9.8 12.9 2.5 7.5 4 10.4 6.9 5.2 6.3 6.9 10.2 2.5 8.1 2.5 12.5-.8 8.6-2.5 12.5-4 7.3-6.9 10.2-6.4 5.2-10.4 6.9c-3.9 1.7-8.2 2.5-12.9 2.5zm.2-15c2.4 0 4.6-.5 6.6-1.4 2.1-.9 3.9-2.1 5.4-3.7 1.5-1.5 2.7-3.3 3.6-5.4s1.3-4.4 1.3-6.8-.4-4.6-1.3-6.8c-.9-2.1-2.1-4-3.6-5.5s-3.3-2.7-5.4-3.7c-2.1-.9-4.3-1.4-6.6-1.4-2.4 0-4.6.5-6.6 1.4-2.1.9-3.9 2.1-5.4 3.7-1.5 1.5-2.7 3.4-3.6 5.5s-1.3 4.4-1.3 6.8.4 4.7 1.3 6.8 2.1 3.9 3.6 5.4 3.3 2.7 5.4 3.7c2 1 4.2 1.4 6.6 1.4zm-296.6-48.1h16l12.5 39.5 14.6-39.5h14.1l14.4 39.5 12.9-39.5h16l-20.9 61.8h-14.9l-14.7-40.3-14.9 40.3h-15.1z" fill="#341d55"/></svg><text x="270" y="182" text-anchor="middle" class="company">Wipro Technologies</text><text x="270" y="200" text-anchor="middle" class="role">Software Engineer</text><text x="270" y="215" text-anchor="middle" class="note">IT journey begins</text><text x="423.33333333333337" y="80" text-anchor="middle" class="range">Feb 2015 – Mar 2017</text><rect x="395.33333333333337" y="96" width="56" height="56" rx="14" class="tile" filter="url(#tileShadow)" /><svg x="401.49" y="102.16" width="43.68" height="43.68" viewBox="0 0 1000 400" preserveAspectRatio="xMidYMid meet" overflow="visible"><path d="M0 0v27.367h194.648V0H0zm222.226 0v27.367h277.383S471.276 0 433.75 0H222.226zm331.797 0v27.367h167.812L711.875 0H554.023zm288.125 0l-9.961 27.367h166.289V0H842.148zM0 53.222v27.367h194.648V53.222H0zm222.226.039V80.59h309.57s-3.615-21.063-9.922-27.329H222.226zm331.797 0V80.59h186.211l-9.219-27.329H554.023zm268.203 0l-9.219 27.329h185.469V53.261h-176.25zM55.937 106.444v27.406h84.297v-27.406H55.937zm222.227 0v27.406h84.297v-27.406h-84.297zm166.289 0v27.406h84.297s5.352-14.473 5.352-27.406h-89.649zm165.508 0v27.406h149.453l-9.961-27.406H609.961zm193.906 0l-10 27.406h150.195v-27.406H803.867zm-747.93 53.262v27.367h84.297v-27.367H55.937zm222.227 0v27.367h215.312s18.012-14.042 23.75-27.367H278.164zm331.797 0v27.367h84.297v-15.234l5.352 15.234h154.414l5.742-15.234v15.234h84.297v-27.367H785.82l-8.398 23.18-8.438-23.18H609.961zM55.937 212.928v27.367h84.297v-27.367H55.937zm222.227 0v27.367h239.062c-5.739-13.281-23.75-27.367-23.75-27.367H278.164zm331.797 0v27.367h84.297v-27.367h-84.297zm99.609 0l10.195 27.367h115.781l9.688-27.367H709.57zm150.195 0v27.367h84.297v-27.367h-84.297zM55.937 266.15v27.366h84.297V266.15H55.937zm222.227 0v27.366h84.297V266.15h-84.297zm166.289 0v27.366h89.648c0-12.915-5.352-27.366-5.352-27.366h-84.296zm165.508 0v27.366h84.297V266.15h-84.297zm118.75 0l9.883 27.366h77.617l9.961-27.366h-97.461zm131.054 0v27.366h84.297V266.15h-84.297zM1.523 319.372v27.406h194.648v-27.406H1.523zm220.703 0v27.406h299.648c6.307-6.275 9.922-27.406 9.922-27.406h-309.57zm333.321 0v27.406h138.711v-27.406H555.547zm192.343 0l10.156 27.406h39.492l9.531-27.406H747.89zm111.875 0v27.406H1000v-27.406H859.765zM1.523 372.633V400h194.648v-27.367H1.523zm220.703 0v27.328H433.75c37.526 0 65.859-27.328 65.859-27.328H222.226zm333.321 0V400h138.711v-27.367H555.547zm211.601 0l9.766 27.29 1.68.038 9.922-27.328h-21.368zm92.617 0V400H1000v-27.367H859.765z" fill="#1f70c1"/></svg><text x="423.33333333333337" y="182" text-anchor="middle" class="company">IBM</text><text x="423.33333333333337" y="200" text-anchor="middle" class="role">Application</text><text x="423.33333333333337" y="215" text-anchor="middle" class="role">Developer</text><text x="576.6666666666667" y="80" text-anchor="middle" class="range">Apr 2017 – Feb 2020</text><rect x="548.6666666666667" y="96" width="56" height="56" rx="14" class="tile" filter="url(#tileShadow)" /><svg x="560.99" y="108.32" width="31.36" height="31.36" viewBox="0 0 24 24" preserveAspectRatio="xMidYMid meet" overflow="visible"><g fill="#007DB8"><path d="M17.963 14.6V9.324h1.222v4.204h2.14v1.07h-3.362zm-9.784-3.288l2.98-2.292c.281.228.56.458.841.687l-2.827 2.14.611.535 2.827-2.216c.281.228.56.458.841.688a295.83 295.83 0 0 1-2.827 2.216l.61.536 2.83-2.295-.001-1.986h1.223v4.204h2.216v1.07h-3.362v-1.987c-.995.763-1.987 1.529-2.981 2.292l-2.981-2.292c-.144.729-.653 1.36-1.312 1.694-.285.147-.597.24-.915.276-.183.022-.367.017-.551.017H3.516V9.325H5.69a2.544 2.544 0 0 1 1.563.557c.454.36.778.872.927 1.43m-3.516-.917v3.21l.953-.001a1.377 1.377 0 0 0 1.036-.523 1.74 1.74 0 0 0 .182-1.889 1.494 1.494 0 0 0-.976-.766c-.166-.04-.338-.03-.507-.032h-.688zM11.82 0h.337a11.94 11.94 0 0 1 5.405 1.373 12.101 12.101 0 0 1 4.126 3.557A11.93 11.93 0 0 1 24 11.82v.36a11.963 11.963 0 0 1-3.236 8.033A11.967 11.967 0 0 1 12.182 24h-.361a11.993 11.993 0 0 1-4.145-.806 12.04 12.04 0 0 1-4.274-2.836A12.057 12.057 0 0 1 .576 15.67 12.006 12.006 0 0 1 0 12.181v-.361a11.924 11.924 0 0 1 1.992-6.396 12.211 12.211 0 0 1 4.71-4.172A11.875 11.875 0 0 1 11.82 0m-.153 1.23a10.724 10.724 0 0 0-6.43 2.375 10.78 10.78 0 0 0-3.319 4.573 10.858 10.858 0 0 0 .193 8.12 10.788 10.788 0 0 0 3.546 4.421 10.698 10.698 0 0 0 4.786 1.946c1.456.209 2.955.124 4.376-.26a10.756 10.756 0 0 0 5.075-3.062 10.742 10.742 0 0 0 2.686-5.28 10.915 10.915 0 0 0-.122-4.682 10.77 10.77 0 0 0-7.098-7.626 10.78 10.78 0 0 0-3.693-.525z"/></g></svg><text x="576.6666666666667" y="182" text-anchor="middle" class="company">Dell Technologies</text><text x="576.6666666666667" y="200" text-anchor="middle" class="role">Principal Software</text><text x="576.6666666666667" y="215" text-anchor="middle" class="role">Engineer</text><text x="730" y="80" text-anchor="middle" class="range">Mar 2020 – Jul 2026</text><rect x="702" y="96" width="56" height="56" rx="14" class="tile" filter="url(#tileShadow)" /><svg x="714.32" y="108.32" width="31.36" height="31.36" viewBox="0 0 24 24" preserveAspectRatio="xMidYMid meet" overflow="visible"><g fill="#E60000"><path d="M12 0A12 12 0 0 0 0 12A12 12 0 0 0 12 24A12 12 0 0 0 24 12A12 12 0 0 0 12 0M16.25 1.12C16.57 1.12 16.9 1.15 17.11 1.22C14.94 1.67 13.21 3.69 13.22 6C13.22 6.05 13.22 6.11 13.23 6.17C16.87 7.06 18.5 9.25 18.5 12.28C18.54 15.31 16.14 18.64 12.09 18.65C8.82 18.66 5.41 15.86 5.39 11.37C5.38 8.4 7 5.54 9.04 3.85C11.04 2.19 13.77 1.13 16.25 1.12Z"/></g></svg><text x="730" y="182" text-anchor="middle" class="company">VOIS</text><text x="730" y="200" text-anchor="middle" class="org">Vodafone Intelligent Solutions</text><text x="730" y="216" text-anchor="middle" class="role">Solution Architect</text><text x="883.3333333333334" y="80" text-anchor="middle" class="range">Aug 2026 – Present</text><rect x="855.3333333333334" y="96" width="56" height="56" rx="14" class="tile tile-future" filter="url(#tileShadow)" /><svg x="870.45" y="111.12" width="25.76" height="25.76" viewBox="0 0 24 24" preserveAspectRatio="xMidYMid meet" overflow="visible"><path d="M12 2l1.9 6.1L20 10l-6.1 1.9L12 18l-1.9-6.1L4 10l6.1-1.9z" fill="#588DF3" /></svg><text x="883.3333333333334" y="182" text-anchor="middle" class="company">New Chapter</text><text x="883.3333333333334" y="200" text-anchor="middle" class="role">To Be Revealed</text>
</svg>