<svg xmlns="http://www.w3.org/2000/svg" viewBox="0 0 1200 120" width="1200" height="120" preserveAspectRatio="xMidYMid meet" role="img" aria-label=""><defs><clipPath id="rc"><path d="M 0 0 L 1200 0 L 1200 112 Q 1200 120 1192 120 L 8 120 Q 0 120 0 112 Z"/></clipPath></defs><style>@keyframes fw1{from{transform:translateX(0)}to{transform:translateX(-400px)}}.fw1{animation:fw1 15s linear infinite}@keyframes fw2{from{transform:translateX(-400px)}to{transform:translateX(0)}}.fw2{animation:fw2 11s linear infinite}@keyframes fw3{from{transform:translateX(0)}to{transform:translateX(-400px)}}.fw3{animation:fw3 8s linear infinite}@keyframes fw4{from{transform:translateX(-400px)}to{transform:translateX(0)}}.fw4{animation:fw4 6s linear infinite}</style><g clip-path="url(#rc)"><g class="fw1"><path d="M -400 120 L -400 30.0 L -400 30.0 L -390 31.9 L -380 33.7 L -370 35.4 L -360 37.1 L -350 38.5 L -340 39.7 L -330 40.7 L -320 41.4 L -310 41.9 L -300 42.0 L -290 41.9 L -280 41.4 L -270 40.7 L -260 39.7 L -250 38.5 L -240 37.1 L -230 35.4 L -220 33.7 L -210 31.9 L -200 30.0 L -190 28.1 L -180 26.3 L -170 24.6 L -160 22.9 L -150 21.5 L -140 20.3 L -130 19.3 L -120 18.6 L -110 18.1 L -100 18.0 L -90 18.1 L -80 18.6 L -70 19.3 L -60 20.3 L -50 21.5 L -40 22.9 L -30 24.6 L -20 26.3 L -10 28.1 L 0 30.0 L 10 31.9 L 20 33.7 L 30 35.4 L 40 37.1 L 50 38.5 L 60 39.7 L 70 40.7 L 80 41.4 L 90 41.9 L 100 42.0 L 110 41.9 L 120 41.4 L 130 40.7 L 140 39.7 L 150 38.5 L 160 37.1 L 170 35.4 L 180 33.7 L 190 31.9 L 200 30.0 L 210 28.1 L 220 26.3 L 230 24.6 L 240 22.9 L 250 21.5 L 260 20.3 L 270 19.3 L 280 18.6 L 290 18.1 L 300 18.0 L 310 18.1 L 320 18.6 L 330 19.3 L 340 20.3 L 350 21.5 L 360 22.9 L 370 24.6 L 380 26.3 L 390 28.1 L 400 30.0 L 410 31.9 L 420 33.7 L 430 35.4 L 440 37.1 L 450 38.5 L 460 39.7 L 470 40.7 L 480 41.4 L 490 41.9 L 500 42.0 L 510 41.9 L 520 41.4 L 530 40.7 L 540 39.7 L 550 38.5 L 560 37.1 L 570 35.4 L 580 33.7 L 590 31.9 L 600 30.0 L 610 28.1 L 620 26.3 L 630 24.6 L 640 22.9 L 650 21.5 L 660 20.3 L 670 19.3 L 680 18.6 L 690 18.1 L 700 18.0 L 710 18.1 L 720 18.6 L 730 19.3 L 740 20.3 L 750 21.5 L 760 22.9 L 770 24.6 L 780 26.3 L 790 28.1 L 800 30.0 L 810 31.9 L 820 33.7 L 830 35.4 L 840 37.1 L 850 38.5 L 860 39.7 L 870 40.7 L 880 41.4 L 890 41.9 L 900 42.0 L 910 41.9 L 920 41.4 L 930 40.7 L 940 39.7 L 950 38.5 L 960 37.1 L 970 35.4 L 980 33.7 L 990 31.9 L 1000 30.0 L 1010 28.1 L 1020 26.3 L 1030 24.6 L 1040 22.9 L 1050 21.5 L 1060 20.3 L 1070 19.3 L 1080 18.6 L 1090 18.1 L 1100 18.0 L 1110 18.1 L 1120 18.6 L 1130 19.3 L 1140 20.3 L 1150 21.5 L 1160 22.9 L 1170 24.6 L 1180 26.3 L 1190 28.1 L 1200 30.0 L 1210 31.9 L 1220 33.7 L 1230 35.4 L 1240 37.1 L 1250 38.5 L 1260 39.7 L 1270 40.7 L 1280 41.4 L 1290 41.9 L 1300 42.0 L 1310 41.9 L 1320 41.4 L 1330 40.7 L 1340 39.7 L 1350 38.5 L 1360 37.1 L 1370 35.4 L 1380 33.7 L 1390 31.9 L 1400 30.0 L 1410 28.1 L 1420 26.3 L 1430 24.6 L 1440 22.9 L 1450 21.5 L 1460 20.3 L 1470 19.3 L 1480 18.6 L 1490 18.1 L 1500 18.0 L 1510 18.1 L 1520 18.6 L 1530 19.3 L 1540 20.3 L 1550 21.5 L 1560 22.9 L 1570 24.6 L 1580 26.3 L 1590 28.1 L 1600 30.0 L 1610 31.9 L 1620 33.7 L 1630 35.4 L 1640 37.1 L 1650 38.5 L 1660 39.7 L 1670 40.7 L 1680 41.4 L 1690 41.9 L 1700 42.0 L 1710 41.9 L 1720 41.4 L 1730 40.7 L 1740 39.7 L 1750 38.5 L 1760 37.1 L 1770 35.4 L 1780 33.7 L 1790 31.9 L 1800 30.0 L 1810 28.1 L 1820 26.3 L 1830 24.6 L 1840 22.9 L 1850 21.5 L 1860 20.3 L 1870 19.3 L 1880 18.6 L 1890 18.1 L 1900 18.0 L 1910 18.1 L 1920 18.6 L 1930 19.3 L 1940 20.3 L 1950 21.5 L 1960 22.9 L 1970 24.6 L 1980 26.3 L 1990 28.1 L 2000 30.0 L 2000 120 Z" fill="#7BA3F6"/></g><g class="fw2"><path d="M -400 120 L -400 56.0 L -400 56.0 L -390 55.8 L -380 55.2 L -370 54.3 L -360 53.1 L -350 51.6 L -340 49.9 L -330 48.0 L -320 45.9 L -310 43.8 L -300 41.6 L -290 39.4 L -280 37.3 L -270 35.3 L -260 33.4 L -250 31.8 L -240 30.4 L -230 29.3 L -220 28.6 L -210 28.1 L -200 28.0 L -190 28.2 L -180 28.8 L -170 29.7 L -160 30.9 L -150 32.4 L -140 34.1 L -130 36.0 L -120 38.1 L -110 40.2 L -100 42.4 L -90 44.6 L -80 46.7 L -70 48.7 L -60 50.6 L -50 52.2 L -40 53.6 L -30 54.7 L -20 55.4 L -10 55.9 L 0 56.0 L 10 55.8 L 20 55.2 L 30 54.3 L 40 53.1 L 50 51.6 L 60 49.9 L 70 48.0 L 80 45.9 L 90 43.8 L 100 41.6 L 110 39.4 L 120 37.3 L 130 35.3 L 140 33.4 L 150 31.8 L 160 30.4 L 170 29.3 L 180 28.6 L 190 28.1 L 200 28.0 L 210 28.2 L 220 28.8 L 230 29.7 L 240 30.9 L 250 32.4 L 260 34.1 L 270 36.0 L 280 38.1 L 290 40.2 L 300 42.4 L 310 44.6 L 320 46.7 L 330 48.7 L 340 50.6 L 350 52.2 L 360 53.6 L 370 54.7 L 380 55.4 L 390 55.9 L 400 56.0 L 410 55.8 L 420 55.2 L 430 54.3 L 440 53.1 L 450 51.6 L 460 49.9 L 470 48.0 L 480 45.9 L 490 43.8 L 500 41.6 L 510 39.4 L 520 37.3 L 530 35.3 L 540 33.4 L 550 31.8 L 560 30.4 L 570 29.3 L 580 28.6 L 590 28.1 L 600 28.0 L 610 28.2 L 620 28.8 L 630 29.7 L 640 30.9 L 650 32.4 L 660 34.1 L 670 36.0 L 680 38.1 L 690 40.2 L 700 42.4 L 710 44.6 L 720 46.7 L 730 48.7 L 740 50.6 L 750 52.2 L 760 53.6 L 770 54.7 L 780 55.4 L 790 55.9 L 800 56.0 L 810 55.8 L 820 55.2 L 830 54.3 L 840 53.1 L 850 51.6 L 860 49.9 L 870 48.0 L 880 45.9 L 890 43.8 L 900 41.6 L 910 39.4 L 920 37.3 L 930 35.3 L 940 33.4 L 950 31.8 L 960 30.4 L 970 29.3 L 980 28.6 L 990 28.1 L 1000 28.0 L 1010 28.2 L 1020 28.8 L 1030 29.7 L 1040 30.9 L 1050 32.4 L 1060 34.1 L 1070 36.0 L 1080 38.1 L 1090 40.2 L 1100 42.4 L 1110 44.6 L 1120 46.7 L 1130 48.7 L 1140 50.6 L 1150 52.2 L 1160 53.6 L 1170 54.7 L 1180 55.4 L 1190 55.9 L 1200 56.0 L 1210 55.8 L 1220 55.2 L 1230 54.3 L 1240 53.1 L 1250 51.6 L 1260 49.9 L 1270 48.0 L 1280 45.9 L 1290 43.8 L 1300 41.6 L 1310 39.4 L 1320 37.3 L 1330 35.3 L 1340 33.4 L 1350 31.8 L 1360 30.4 L 1370 29.3 L 1380 28.6 L 1390 28.1 L 1400 28.0 L 1410 28.2 L 1420 28.8 L 1430 29.7 L 1440 30.9 L 1450 32.4 L 1460 34.1 L 1470 36.0 L 1480 38.1 L 1490 40.2 L 1500 42.4 L 1510 44.6 L 1520 46.7 L 1530 48.7 L 1540 50.6 L 1550 52.2 L 1560 53.6 L 1570 54.7 L 1580 55.4 L 1590 55.9 L 1600 56.0 L 1610 55.8 L 1620 55.2 L 1630 54.3 L 1640 53.1 L 1650 51.6 L 1660 49.9 L 1670 48.0 L 1680 45.9 L 1690 43.8 L 1700 41.6 L 1710 39.4 L 1720 37.3 L 1730 35.3 L 1740 33.4 L 1750 31.8 L 1760 30.4 L 1770 29.3 L 1780 28.6 L 1790 28.1 L 1800 28.0 L 1810 28.2 L 1820 28.8 L 1830 29.7 L 1840 30.9 L 1850 32.4 L 1860 34.1 L 1870 36.0 L 1880 38.1 L 1890 40.2 L 1900 42.4 L 1910 44.6 L 1920 46.7 L 1930 48.7 L 1940 50.6 L 1950 52.2 L 1960 53.6 L 1970 54.7 L 1980 55.4 L 1990 55.9 L 2000 56.0 L 2000 120 Z" fill="#5887EE"/></g><g class="fw3"><path d="M -400 120 L -400 53.4 L -400 53.4 L -390 51.6 L -380 50.0 L -370 48.4 L -360 47.0 L -350 45.8 L -340 44.7 L -330 43.9 L -320 43.4 L -310 43.1 L -300 43.0 L -290 43.3 L -280 43.8 L -270 44.5 L -260 45.5 L -250 46.7 L -240 48.1 L -230 49.6 L -220 51.2 L -210 52.9 L -200 54.6 L -190 56.4 L -180 58.0 L -170 59.6 L -160 61.0 L -150 62.2 L -140 63.3 L -130 64.1 L -120 64.6 L -110 64.9 L -100 65.0 L -90 64.7 L -80 64.2 L -70 63.5 L -60 62.5 L -50 61.3 L -40 59.9 L -30 58.4 L -20 56.8 L -10 55.1 L 0 53.4 L 10 51.6 L 20 50.0 L 30 48.4 L 40 47.0 L 50 45.8 L 60 44.7 L 70 43.9 L 80 43.4 L 90 43.1 L 100 43.0 L 110 43.3 L 120 43.8 L 130 44.5 L 140 45.5 L 150 46.7 L 160 48.1 L 170 49.6 L 180 51.2 L 190 52.9 L 200 54.6 L 210 56.4 L 220 58.0 L 230 59.6 L 240 61.0 L 250 62.2 L 260 63.3 L 270 64.1 L 280 64.6 L 290 64.9 L 300 65.0 L 310 64.7 L 320 64.2 L 330 63.5 L 340 62.5 L 350 61.3 L 360 59.9 L 370 58.4 L 380 56.8 L 390 55.1 L 400 53.4 L 410 51.6 L 420 50.0 L 430 48.4 L 440 47.0 L 450 45.8 L 460 44.7 L 470 43.9 L 480 43.4 L 490 43.1 L 500 43.0 L 510 43.3 L 520 43.8 L 530 44.5 L 540 45.5 L 550 46.7 L 560 48.1 L 570 49.6 L 580 51.2 L 590 52.9 L 600 54.6 L 610 56.4 L 620 58.0 L 630 59.6 L 640 61.0 L 650 62.2 L 660 63.3 L 670 64.1 L 680 64.6 L 690 64.9 L 700 65.0 L 710 64.7 L 720 64.2 L 730 63.5 L 740 62.5 L 750 61.3 L 760 59.9 L 770 58.4 L 780 56.8 L 790 55.1 L 800 53.4 L 810 51.6 L 820 50.0 L 830 48.4 L 840 47.0 L 850 45.8 L 860 44.7 L 870 43.9 L 880 43.4 L 890 43.1 L 900 43.0 L 910 43.3 L 920 43.8 L 930 44.5 L 940 45.5 L 950 46.7 L 960 48.1 L 970 49.6 L 980 51.2 L 990 52.9 L 1000 54.6 L 1010 56.4 L 1020 58.0 L 1030 59.6 L 1040 61.0 L 1050 62.2 L 1060 63.3 L 1070 64.1 L 1080 64.6 L 1090 64.9 L 1100 65.0 L 1110 64.7 L 1120 64.2 L 1130 63.5 L 1140 62.5 L 1150 61.3 L 1160 59.9 L 1170 58.4 L 1180 56.8 L 1190 55.1 L 1200 53.4 L 1210 51.6 L 1220 50.0 L 1230 48.4 L 1240 47.0 L 1250 45.8 L 1260 44.7 L 1270 43.9 L 1280 43.4 L 1290 43.1 L 1300 43.0 L 1310 43.3 L 1320 43.8 L 1330 44.5 L 1340 45.5 L 1350 46.7 L 1360 48.1 L 1370 49.6 L 1380 51.2 L 1390 52.9 L 1400 54.6 L 1410 56.4 L 1420 58.0 L 1430 59.6 L 1440 61.0 L 1450 62.2 L 1460 63.3 L 1470 64.1 L 1480 64.6 L 1490 64.9 L 1500 65.0 L 1510 64.7 L 1520 64.2 L 1530 63.5 L 1540 62.5 L 1550 61.3 L 1560 59.9 L 1570 58.4 L 1580 56.8 L 1590 55.1 L 1600 53.4 L 1610 51.6 L 1620 50.0 L 1630 48.4 L 1640 47.0 L 1650 45.8 L 1660 44.7 L 1670 43.9 L 1680 43.4 L 1690 43.1 L 1700 43.0 L 1710 43.3 L 1720 43.8 L 1730 44.5 L 1740 45.5 L 1750 46.7 L 1760 48.1 L 1770 49.6 L 1780 51.2 L 1790 52.9 L 1800 54.6 L 1810 56.4 L 1820 58.0 L 1830 59.6 L 1840 61.0 L 1850 62.2 L 1860 63.3 L 1870 64.1 L 1880 64.6 L 1890 64.9 L 1900 65.0 L 1910 64.7 L 1920 64.2 L 1930 63.5 L 1940 62.5 L 1950 61.3 L 1960 59.9 L 1970 58.4 L 1980 56.8 L 1990 55.1 L 2000 53.4 L 2000 120 Z" fill="#3A63D4"/></g><g class="fw4"><path d="M -400 120 L -400 57.0 L -400 57.0 L -390 57.3 L -380 57.7 L -370 58.4 L -360 59.2 L -350 60.2 L -340 61.4 L -330 62.6 L -320 64.0 L -310 65.4 L -300 66.8 L -290 68.2 L -280 69.5 L -270 70.8 L -260 71.9 L -250 72.9 L -240 73.7 L -230 74.3 L -220 74.8 L -210 75.0 L -200 75.0 L -190 74.7 L -180 74.3 L -170 73.6 L -160 72.8 L -150 71.8 L -140 70.6 L -130 69.4 L -120 68.0 L -110 66.6 L -100 65.2 L -90 63.8 L -80 62.5 L -70 61.2 L -60 60.1 L -50 59.1 L -40 58.3 L -30 57.7 L -20 57.2 L -10 57.0 L 0 57.0 L 10 57.3 L 20 57.7 L 30 58.4 L 40 59.2 L 50 60.2 L 60 61.4 L 70 62.6 L 80 64.0 L 90 65.4 L 100 66.8 L 110 68.2 L 120 69.5 L 130 70.8 L 140 71.9 L 150 72.9 L 160 73.7 L 170 74.3 L 180 74.8 L 190 75.0 L 200 75.0 L 210 74.7 L 220 74.3 L 230 73.6 L 240 72.8 L 250 71.8 L 260 70.6 L 270 69.4 L 280 68.0 L 290 66.6 L 300 65.2 L 310 63.8 L 320 62.5 L 330 61.2 L 340 60.1 L 350 59.1 L 360 58.3 L 370 57.7 L 380 57.2 L 390 57.0 L 400 57.0 L 410 57.3 L 420 57.7 L 430 58.4 L 440 59.2 L 450 60.2 L 460 61.4 L 470 62.6 L 480 64.0 L 490 65.4 L 500 66.8 L 510 68.2 L 520 69.5 L 530 70.8 L 540 71.9 L 550 72.9 L 560 73.7 L 570 74.3 L 580 74.8 L 590 75.0 L 600 75.0 L 610 74.7 L 620 74.3 L 630 73.6 L 640 72.8 L 650 71.8 L 660 70.6 L 670 69.4 L 680 68.0 L 690 66.6 L 700 65.2 L 710 63.8 L 720 62.5 L 730 61.2 L 740 60.1 L 750 59.1 L 760 58.3 L 770 57.7 L 780 57.2 L 790 57.0 L 800 57.0 L 810 57.3 L 820 57.7 L 830 58.4 L 840 59.2 L 850 60.2 L 860 61.4 L 870 62.6 L 880 64.0 L 890 65.4 L 900 66.8 L 910 68.2 L 920 69.5 L 930 70.8 L 940 71.9 L 950 72.9 L 960 73.7 L 970 74.3 L 980 74.8 L 990 75.0 L 1000 75.0 L 1010 74.7 L 1020 74.3 L 1030 73.6 L 1040 72.8 L 1050 71.8 L 1060 70.6 L 1070 69.4 L 1080 68.0 L 1090 66.6 L 1100 65.2 L 1110 63.8 L 1120 62.5 L 1130 61.2 L 1140 60.1 L 1150 59.1 L 1160 58.3 L 1170 57.7 L 1180 57.2 L 1190 57.0 L 1200 57.0 L 1210 57.3 L 1220 57.7 L 1230 58.4 L 1240 59.2 L 1250 60.2 L 1260 61.4 L 1270 62.6 L 1280 64.0 L 1290 65.4 L 1300 66.8 L 1310 68.2 L 1320 69.5 L 1330 70.8 L 1340 71.9 L 1350 72.9 L 1360 73.7 L 1370 74.3 L 1380 74.8 L 1390 75.0 L 1400 75.0 L 1410 74.7 L 1420 74.3 L 1430 73.6 L 1440 72.8 L 1450 71.8 L 1460 70.6 L 1470 69.4 L 1480 68.0 L 1490 66.6 L 1500 65.2 L 1510 63.8 L 1520 62.5 L 1530 61.2 L 1540 60.1 L 1550 59.1 L 1560 58.3 L 1570 57.7 L 1580 57.2 L 1590 57.0 L 1600 57.0 L 1610 57.3 L 1620 57.7 L 1630 58.4 L 1640 59.2 L 1650 60.2 L 1660 61.4 L 1670 62.6 L 1680 64.0 L 1690 65.4 L 1700 66.8 L 1710 68.2 L 1720 69.5 L 1730 70.8 L 1740 71.9 L 1750 72.9 L 1760 73.7 L 1770 74.3 L 1780 74.8 L 1790 75.0 L 1800 75.0 L 1810 74.7 L 1820 74.3 L 1830 73.6 L 1840 72.8 L 1850 71.8 L 1860 70.6 L 1870 69.4 L 1880 68.0 L 1890 66.6 L 1900 65.2 L 1910 63.8 L 1920 62.5 L 1930 61.2 L 1940 60.1 L 1950 59.1 L 1960 58.3 L 1970 57.7 L 1980 57.2 L 1990 57.0 L 2000 57.0 L 2000 120 Z" fill="#1E40AF"/></g></g></svg>