<svg xmlns="http://www.w3.org/2000/svg" viewBox="0 0 1200 180" width="1200" height="180" preserveAspectRatio="xMidYMid meet" role="img" aria-label="Sumit Sahoo - Solution Architect"><defs><clipPath id="rc"><path d="M 0 8 Q 0 0 8 0 L 1192 0 Q 1200 0 1200 8 L 1200 180 L 0 180 Z"/></clipPath></defs><style>@keyframes hw1{from{transform:translateX(-400px)}to{transform:translateX(0)}}.hw1{animation:hw1 15s linear infinite}@keyframes hw2{from{transform:translateX(0)}to{transform:translateX(-400px)}}.hw2{animation:hw2 11s linear infinite}@keyframes hw3{from{transform:translateX(-400px)}to{transform:translateX(0)}}.hw3{animation:hw3 8s linear infinite}@keyframes hw4{from{transform:translateX(0)}to{transform:translateX(-400px)}}.hw4{animation:hw4 6s linear infinite}@keyframes fade{from{opacity:0}to{opacity:1}}.ttl,.sub{animation:fade 1.5s ease-out both}.sub{animation-delay:.35s}</style><g clip-path="url(#rc)"><g class="hw1"><path d="M -400 0 L 2000 0 L 2000 150.0 L 2000 150.0 L 1990 148.1 L 1980 146.3 L 1970 144.6 L 1960 142.9 L 1950 141.5 L 1940 140.3 L 1930 139.3 L 1920 138.6 L 1910 138.1 L 1900 138.0 L 1890 138.1 L 1880 138.6 L 1870 139.3 L 1860 140.3 L 1850 141.5 L 1840 142.9 L 1830 144.6 L 1820 146.3 L 1810 148.1 L 1800 150.0 L 1790 151.9 L 1780 153.7 L 1770 155.4 L 1760 157.1 L 1750 158.5 L 1740 159.7 L 1730 160.7 L 1720 161.4 L 1710 161.9 L 1700 162.0 L 1690 161.9 L 1680 161.4 L 1670 160.7 L 1660 159.7 L 1650 158.5 L 1640 157.1 L 1630 155.4 L 1620 153.7 L 1610 151.9 L 1600 150.0 L 1590 148.1 L 1580 146.3 L 1570 144.6 L 1560 142.9 L 1550 141.5 L 1540 140.3 L 1530 139.3 L 1520 138.6 L 1510 138.1 L 1500 138.0 L 1490 138.1 L 1480 138.6 L 1470 139.3 L 1460 140.3 L 1450 141.5 L 1440 142.9 L 1430 144.6 L 1420 146.3 L 1410 148.1 L 1400 150.0 L 1390 151.9 L 1380 153.7 L 1370 155.4 L 1360 157.1 L 1350 158.5 L 1340 159.7 L 1330 160.7 L 1320 161.4 L 1310 161.9 L 1300 162.0 L 1290 161.9 L 1280 161.4 L 1270 160.7 L 1260 159.7 L 1250 158.5 L 1240 157.1 L 1230 155.4 L 1220 153.7 L 1210 151.9 L 1200 150.0 L 1190 148.1 L 1180 146.3 L 1170 144.6 L 1160 142.9 L 1150 141.5 L 1140 140.3 L 1130 139.3 L 1120 138.6 L 1110 138.1 L 1100 138.0 L 1090 138.1 L 1080 138.6 L 1070 139.3 L 1060 140.3 L 1050 141.5 L 1040 142.9 L 1030 144.6 L 1020 146.3 L 1010 148.1 L 1000 150.0 L 990 151.9 L 980 153.7 L 970 155.4 L 960 157.1 L 950 158.5 L 940 159.7 L 930 160.7 L 920 161.4 L 910 161.9 L 900 162.0 L 890 161.9 L 880 161.4 L 870 160.7 L 860 159.7 L 850 158.5 L 840 157.1 L 830 155.4 L 820 153.7 L 810 151.9 L 800 150.0 L 790 148.1 L 780 146.3 L 770 144.6 L 760 142.9 L 750 141.5 L 740 140.3 L 730 139.3 L 720 138.6 L 710 138.1 L 700 138.0 L 690 138.1 L 680 138.6 L 670 139.3 L 660 140.3 L 650 141.5 L 640 142.9 L 630 144.6 L 620 146.3 L 610 148.1 L 600 150.0 L 590 151.9 L 580 153.7 L 570 155.4 L 560 157.1 L 550 158.5 L 540 159.7 L 530 160.7 L 520 161.4 L 510 161.9 L 500 162.0 L 490 161.9 L 480 161.4 L 470 160.7 L 460 159.7 L 450 158.5 L 440 157.1 L 430 155.4 L 420 153.7 L 410 151.9 L 400 150.0 L 390 148.1 L 380 146.3 L 370 144.6 L 360 142.9 L 350 141.5 L 340 140.3 L 330 139.3 L 320 138.6 L 310 138.1 L 300 138.0 L 290 138.1 L 280 138.6 L 270 139.3 L 260 140.3 L 250 141.5 L 240 142.9 L 230 144.6 L 220 146.3 L 210 148.1 L 200 150.0 L 190 151.9 L 180 153.7 L 170 155.4 L 160 157.1 L 150 158.5 L 140 159.7 L 130 160.7 L 120 161.4 L 110 161.9 L 100 162.0 L 90 161.9 L 80 161.4 L 70 160.7 L 60 159.7 L 50 158.5 L 40 157.1 L 30 155.4 L 20 153.7 L 10 151.9 L 0 150.0 L -10 148.1 L -20 146.3 L -30 144.6 L -40 142.9 L -50 141.5 L -60 140.3 L -70 139.3 L -80 138.6 L -90 138.1 L -100 138.0 L -110 138.1 L -120 138.6 L -130 139.3 L -140 140.3 L -150 141.5 L -160 142.9 L -170 144.6 L -180 146.3 L -190 148.1 L -200 150.0 L -210 151.9 L -220 153.7 L -230 155.4 L -240 157.1 L -250 158.5 L -260 159.7 L -270 160.7 L -280 161.4 L -290 161.9 L -300 162.0 L -310 161.9 L -320 161.4 L -330 160.7 L -340 159.7 L -350 158.5 L -360 157.1 L -370 155.4 L -380 153.7 L -390 151.9 L -400 150.0 Z" fill="#7BA3F6"/></g><g class="hw2"><path d="M -400 0 L 2000 0 L 2000 152.0 L 2000 152.0 L 1990 151.9 L 1980 151.4 L 1970 150.7 L 1960 149.6 L 1950 148.2 L 1940 146.6 L 1930 144.7 L 1920 142.7 L 1910 140.6 L 1900 138.4 L 1890 136.2 L 1880 134.1 L 1870 132.0 L 1860 130.1 L 1850 128.4 L 1840 126.9 L 1830 125.7 L 1820 124.8 L 1810 124.2 L 1800 124.0 L 1790 124.1 L 1780 124.6 L 1770 125.3 L 1760 126.4 L 1750 127.8 L 1740 129.4 L 1730 131.3 L 1720 133.3 L 1710 135.4 L 1700 137.6 L 1690 139.8 L 1680 141.9 L 1670 144.0 L 1660 145.9 L 1650 147.6 L 1640 149.1 L 1630 150.3 L 1620 151.2 L 1610 151.8 L 1600 152.0 L 1590 151.9 L 1580 151.4 L 1570 150.7 L 1560 149.6 L 1550 148.2 L 1540 146.6 L 1530 144.7 L 1520 142.7 L 1510 140.6 L 1500 138.4 L 1490 136.2 L 1480 134.1 L 1470 132.0 L 1460 130.1 L 1450 128.4 L 1440 126.9 L 1430 125.7 L 1420 124.8 L 1410 124.2 L 1400 124.0 L 1390 124.1 L 1380 124.6 L 1370 125.3 L 1360 126.4 L 1350 127.8 L 1340 129.4 L 1330 131.3 L 1320 133.3 L 1310 135.4 L 1300 137.6 L 1290 139.8 L 1280 141.9 L 1270 144.0 L 1260 145.9 L 1250 147.6 L 1240 149.1 L 1230 150.3 L 1220 151.2 L 1210 151.8 L 1200 152.0 L 1190 151.9 L 1180 151.4 L 1170 150.7 L 1160 149.6 L 1150 148.2 L 1140 146.6 L 1130 144.7 L 1120 142.7 L 1110 140.6 L 1100 138.4 L 1090 136.2 L 1080 134.1 L 1070 132.0 L 1060 130.1 L 1050 128.4 L 1040 126.9 L 1030 125.7 L 1020 124.8 L 1010 124.2 L 1000 124.0 L 990 124.1 L 980 124.6 L 970 125.3 L 960 126.4 L 950 127.8 L 940 129.4 L 930 131.3 L 920 133.3 L 910 135.4 L 900 137.6 L 890 139.8 L 880 141.9 L 870 144.0 L 860 145.9 L 850 147.6 L 840 149.1 L 830 150.3 L 820 151.2 L 810 151.8 L 800 152.0 L 790 151.9 L 780 151.4 L 770 150.7 L 760 149.6 L 750 148.2 L 740 146.6 L 730 144.7 L 720 142.7 L 710 140.6 L 700 138.4 L 690 136.2 L 680 134.1 L 670 132.0 L 660 130.1 L 650 128.4 L 640 126.9 L 630 125.7 L 620 124.8 L 610 124.2 L 600 124.0 L 590 124.1 L 580 124.6 L 570 125.3 L 560 126.4 L 550 127.8 L 540 129.4 L 530 131.3 L 520 133.3 L 510 135.4 L 500 137.6 L 490 139.8 L 480 141.9 L 470 144.0 L 460 145.9 L 450 147.6 L 440 149.1 L 430 150.3 L 420 151.2 L 410 151.8 L 400 152.0 L 390 151.9 L 380 151.4 L 370 150.7 L 360 149.6 L 350 148.2 L 340 146.6 L 330 144.7 L 320 142.7 L 310 140.6 L 300 138.4 L 290 136.2 L 280 134.1 L 270 132.0 L 260 130.1 L 250 128.4 L 240 126.9 L 230 125.7 L 220 124.8 L 210 124.2 L 200 124.0 L 190 124.1 L 180 124.6 L 170 125.3 L 160 126.4 L 150 127.8 L 140 129.4 L 130 131.3 L 120 133.3 L 110 135.4 L 100 137.6 L 90 139.8 L 80 141.9 L 70 144.0 L 60 145.9 L 50 147.6 L 40 149.1 L 30 150.3 L 20 151.2 L 10 151.8 L 0 152.0 L -10 151.9 L -20 151.4 L -30 150.7 L -40 149.6 L -50 148.2 L -60 146.6 L -70 144.7 L -80 142.7 L -90 140.6 L -100 138.4 L -110 136.2 L -120 134.1 L -130 132.0 L -140 130.1 L -150 128.4 L -160 126.9 L -170 125.7 L -180 124.8 L -190 124.2 L -200 124.0 L -210 124.1 L -220 124.6 L -230 125.3 L -240 126.4 L -250 127.8 L -260 129.4 L -270 131.3 L -280 133.3 L -290 135.4 L -300 137.6 L -310 139.8 L -320 141.9 L -330 144.0 L -340 145.9 L -350 147.6 L -360 149.1 L -370 150.3 L -380 151.2 L -390 151.8 L -400 152.0 Z" fill="#5887EE"/></g><g class="hw3"><path d="M -400 0 L 2000 0 L 2000 125.4 L 2000 125.4 L 1990 127.1 L 1980 128.8 L 1970 130.4 L 1960 131.9 L 1950 133.3 L 1940 134.5 L 1930 135.5 L 1920 136.2 L 1910 136.7 L 1900 137.0 L 1890 136.9 L 1880 136.6 L 1870 136.1 L 1860 135.3 L 1850 134.2 L 1840 133.0 L 1830 131.6 L 1820 130.0 L 1810 128.4 L 1800 126.6 L 1790 124.9 L 1780 123.2 L 1770 121.6 L 1760 120.1 L 1750 118.7 L 1740 117.5 L 1730 116.5 L 1720 115.8 L 1710 115.3 L 1700 115.0 L 1690 115.1 L 1680 115.4 L 1670 115.9 L 1660 116.7 L 1650 117.8 L 1640 119.0 L 1630 120.4 L 1620 122.0 L 1610 123.6 L 1600 125.4 L 1590 127.1 L 1580 128.8 L 1570 130.4 L 1560 131.9 L 1550 133.3 L 1540 134.5 L 1530 135.5 L 1520 136.2 L 1510 136.7 L 1500 137.0 L 1490 136.9 L 1480 136.6 L 1470 136.1 L 1460 135.3 L 1450 134.2 L 1440 133.0 L 1430 131.6 L 1420 130.0 L 1410 128.4 L 1400 126.6 L 1390 124.9 L 1380 123.2 L 1370 121.6 L 1360 120.1 L 1350 118.7 L 1340 117.5 L 1330 116.5 L 1320 115.8 L 1310 115.3 L 1300 115.0 L 1290 115.1 L 1280 115.4 L 1270 115.9 L 1260 116.7 L 1250 117.8 L 1240 119.0 L 1230 120.4 L 1220 122.0 L 1210 123.6 L 1200 125.4 L 1190 127.1 L 1180 128.8 L 1170 130.4 L 1160 131.9 L 1150 133.3 L 1140 134.5 L 1130 135.5 L 1120 136.2 L 1110 136.7 L 1100 137.0 L 1090 136.9 L 1080 136.6 L 1070 136.1 L 1060 135.3 L 1050 134.2 L 1040 133.0 L 1030 131.6 L 1020 130.0 L 1010 128.4 L 1000 126.6 L 990 124.9 L 980 123.2 L 970 121.6 L 960 120.1 L 950 118.7 L 940 117.5 L 930 116.5 L 920 115.8 L 910 115.3 L 900 115.0 L 890 115.1 L 880 115.4 L 870 115.9 L 860 116.7 L 850 117.8 L 840 119.0 L 830 120.4 L 820 122.0 L 810 123.6 L 800 125.4 L 790 127.1 L 780 128.8 L 770 130.4 L 760 131.9 L 750 133.3 L 740 134.5 L 730 135.5 L 720 136.2 L 710 136.7 L 700 137.0 L 690 136.9 L 680 136.6 L 670 136.1 L 660 135.3 L 650 134.2 L 640 133.0 L 630 131.6 L 620 130.0 L 610 128.4 L 600 126.6 L 590 124.9 L 580 123.2 L 570 121.6 L 560 120.1 L 550 118.7 L 540 117.5 L 530 116.5 L 520 115.8 L 510 115.3 L 500 115.0 L 490 115.1 L 480 115.4 L 470 115.9 L 460 116.7 L 450 117.8 L 440 119.0 L 430 120.4 L 420 122.0 L 410 123.6 L 400 125.4 L 390 127.1 L 380 128.8 L 370 130.4 L 360 131.9 L 350 133.3 L 340 134.5 L 330 135.5 L 320 136.2 L 310 136.7 L 300 137.0 L 290 136.9 L 280 136.6 L 270 136.1 L 260 135.3 L 250 134.2 L 240 133.0 L 230 131.6 L 220 130.0 L 210 128.4 L 200 126.6 L 190 124.9 L 180 123.2 L 170 121.6 L 160 120.1 L 150 118.7 L 140 117.5 L 130 116.5 L 120 115.8 L 110 115.3 L 100 115.0 L 90 115.1 L 80 115.4 L 70 115.9 L 60 116.7 L 50 117.8 L 40 119.0 L 30 120.4 L 20 122.0 L 10 123.6 L 0 125.4 L -10 127.1 L -20 128.8 L -30 130.4 L -40 131.9 L -50 133.3 L -60 134.5 L -70 135.5 L -80 136.2 L -90 136.7 L -100 137.0 L -110 136.9 L -120 136.6 L -130 136.1 L -140 135.3 L -150 134.2 L -160 133.0 L -170 131.6 L -180 130.0 L -190 128.4 L -200 126.6 L -210 124.9 L -220 123.2 L -230 121.6 L -240 120.1 L -250 118.7 L -260 117.5 L -270 116.5 L -280 115.8 L -290 115.3 L -300 115.0 L -310 115.1 L -320 115.4 L -330 115.9 L -340 116.7 L -350 117.8 L -360 119.0 L -370 120.4 L -380 122.0 L -390 123.6 L -400 125.4 Z" fill="#3A63D4"/></g><g class="hw4"><path d="M -400 0 L 2000 0 L 2000 107.0 L 2000 107.0 L 1990 107.0 L 1980 107.2 L 1970 107.7 L 1960 108.3 L 1950 109.1 L 1940 110.1 L 1930 111.2 L 1920 112.5 L 1910 113.8 L 1900 115.2 L 1890 116.6 L 1880 118.0 L 1870 119.4 L 1860 120.6 L 1850 121.8 L 1840 122.8 L 1830 123.6 L 1820 124.3 L 1810 124.7 L 1800 125.0 L 1790 125.0 L 1780 124.8 L 1770 124.3 L 1760 123.7 L 1750 122.9 L 1740 121.9 L 1730 120.8 L 1720 119.5 L 1710 118.2 L 1700 116.8 L 1690 115.4 L 1680 114.0 L 1670 112.6 L 1660 111.4 L 1650 110.2 L 1640 109.2 L 1630 108.4 L 1620 107.7 L 1610 107.3 L 1600 107.0 L 1590 107.0 L 1580 107.2 L 1570 107.7 L 1560 108.3 L 1550 109.1 L 1540 110.1 L 1530 111.2 L 1520 112.5 L 1510 113.8 L 1500 115.2 L 1490 116.6 L 1480 118.0 L 1470 119.4 L 1460 120.6 L 1450 121.8 L 1440 122.8 L 1430 123.6 L 1420 124.3 L 1410 124.7 L 1400 125.0 L 1390 125.0 L 1380 124.8 L 1370 124.3 L 1360 123.7 L 1350 122.9 L 1340 121.9 L 1330 120.8 L 1320 119.5 L 1310 118.2 L 1300 116.8 L 1290 115.4 L 1280 114.0 L 1270 112.6 L 1260 111.4 L 1250 110.2 L 1240 109.2 L 1230 108.4 L 1220 107.7 L 1210 107.3 L 1200 107.0 L 1190 107.0 L 1180 107.2 L 1170 107.7 L 1160 108.3 L 1150 109.1 L 1140 110.1 L 1130 111.2 L 1120 112.5 L 1110 113.8 L 1100 115.2 L 1090 116.6 L 1080 118.0 L 1070 119.4 L 1060 120.6 L 1050 121.8 L 1040 122.8 L 1030 123.6 L 1020 124.3 L 1010 124.7 L 1000 125.0 L 990 125.0 L 980 124.8 L 970 124.3 L 960 123.7 L 950 122.9 L 940 121.9 L 930 120.8 L 920 119.5 L 910 118.2 L 900 116.8 L 890 115.4 L 880 114.0 L 870 112.6 L 860 111.4 L 850 110.2 L 840 109.2 L 830 108.4 L 820 107.7 L 810 107.3 L 800 107.0 L 790 107.0 L 780 107.2 L 770 107.7 L 760 108.3 L 750 109.1 L 740 110.1 L 730 111.2 L 720 112.5 L 710 113.8 L 700 115.2 L 690 116.6 L 680 118.0 L 670 119.4 L 660 120.6 L 650 121.8 L 640 122.8 L 630 123.6 L 620 124.3 L 610 124.7 L 600 125.0 L 590 125.0 L 580 124.8 L 570 124.3 L 560 123.7 L 550 122.9 L 540 121.9 L 530 120.8 L 520 119.5 L 510 118.2 L 500 116.8 L 490 115.4 L 480 114.0 L 470 112.6 L 460 111.4 L 450 110.2 L 440 109.2 L 430 108.4 L 420 107.7 L 410 107.3 L 400 107.0 L 390 107.0 L 380 107.2 L 370 107.7 L 360 108.3 L 350 109.1 L 340 110.1 L 330 111.2 L 320 112.5 L 310 113.8 L 300 115.2 L 290 116.6 L 280 118.0 L 270 119.4 L 260 120.6 L 250 121.8 L 240 122.8 L 230 123.6 L 220 124.3 L 210 124.7 L 200 125.0 L 190 125.0 L 180 124.8 L 170 124.3 L 160 123.7 L 150 122.9 L 140 121.9 L 130 120.8 L 120 119.5 L 110 118.2 L 100 116.8 L 90 115.4 L 80 114.0 L 70 112.6 L 60 111.4 L 50 110.2 L 40 109.2 L 30 108.4 L 20 107.7 L 10 107.3 L 0 107.0 L -10 107.0 L -20 107.2 L -30 107.7 L -40 108.3 L -50 109.1 L -60 110.1 L -70 111.2 L -80 112.5 L -90 113.8 L -100 115.2 L -110 116.6 L -120 118.0 L -130 119.4 L -140 120.6 L -150 121.8 L -160 122.8 L -170 123.6 L -180 124.3 L -190 124.7 L -200 125.0 L -210 125.0 L -220 124.8 L -230 124.3 L -240 123.7 L -250 122.9 L -260 121.9 L -270 120.8 L -280 119.5 L -290 118.2 L -300 116.8 L -310 115.4 L -320 114.0 L -330 112.6 L -340 111.4 L -350 110.2 L -360 109.2 L -370 108.4 L -380 107.7 L -390 107.3 L -400 107.0 Z" fill="#1E40AF"/></g><text class="ttl" x="600" y="62" text-anchor="middle" fill="#fff" font-family="'Segoe UI',Helvetica,Arial,sans-serif" font-size="34" font-weight="700">Hey there! 👋 I’m Sumit Sahoo</text><text class="sub" x="600" y="92" text-anchor="middle" fill="#fff" opacity="0.92" font-family="'Segoe UI',Helvetica,Arial,sans-serif" font-size="16">Solution Architect • AI, cloud &amp; open source</text></g></svg>