<svg xmlns="http://www.w3.org/2000/svg" width="1000" height="410" viewBox="0 0 1000 410" fill="none" role="img" aria-label="Tech stack capabilities">
  <defs>
    <filter id="chipShadow" x="-20%" y="-30%" width="140%" height="160%">
      <feDropShadow dx="0" dy="1.5" stdDeviation="2.5" flood-color="#1f2328" flood-opacity="0.12" />
    </filter>
  </defs>
  <style>
    :root {
      --bg: #ffffff; --border: #d0d7de;
      --panel: #f7f9fc; --panel-border: #e6ebf3;
      --title: #1f2328; --muted: #59636e;
      --chip-bg: #ffffff; --chip-border: #e3e9f2; --chip-fg: #1f2328;
    }
    @media (prefers-color-scheme: dark) {
      :root {
        --bg: #0d1117; --border: #30363d;
        --panel: #11161d; --panel-border: #283446;
        --title: #e6edf3; --muted: #8b949e;
        --chip-bg: #161b22; --chip-border: #283446; --chip-fg: #e6edf3;
      }
    }
    .card { fill: var(--bg); stroke: var(--border); }
    .panel { fill: var(--panel); stroke: var(--panel-border); stroke-width: 1; }
    .title { fill: var(--title); font: 700 16px 'Segoe UI', Ubuntu, Helvetica, Arial, sans-serif; }
    .blurb { fill: var(--muted); font: 400 12.5px 'Segoe UI', Ubuntu, Helvetica, Arial, sans-serif; }
    .chip { fill: var(--chip-bg); stroke: var(--chip-border); stroke-width: 1; }
    .chip-label { fill: var(--chip-fg); font: 600 13px 'Segoe UI', Ubuntu, Helvetica, Arial, sans-serif; letter-spacing: .1px; }
    .ghost { fill: none; stroke: #588DF3; stroke-opacity: .45; stroke-width: 1; stroke-dasharray: 3 3; }
    .ghost-label { fill: var(--muted); font: 600 12px 'Segoe UI', Ubuntu, Helvetica, Arial, sans-serif; }
  </style>

  <rect class="card" x="1" y="1" width="998" height="408" rx="16" stroke-width="1.5" />

  <rect x="26" y="26" width="463" height="168" rx="14" class="panel" /><rect x="50" y="50" width="34" height="34" rx="9" fill="#588DF3" fill-opacity="0.14" /><svg x="57" y="57" width="20" height="20" viewBox="0 0 24 24"><path d="M20 9V7c0-1.1-.9-2-2-2h-3c0-1.66-1.34-3-3-3S9 3.34 9 5H6c-1.1 0-2 .9-2 2v2c-1.66 0-3 1.34-3 3s1.34 3 3 3v4c0 1.1.9 2 2 2h12c1.1 0 2-.9 2-2v-4c1.66 0 3-1.34 3-3s-1.34-3-3-3zM9 13c-.83 0-1.5-.67-1.5-1.5S8.17 10 9 10s1.5.67 1.5 1.5S9.83 13 9 13zm7-1.5c0 .83-.67 1.5-1.5 1.5s-1.5-.67-1.5-1.5.67-1.5 1.5-1.5 1.5.67 1.5 1.5zM8 15h8v2H8v-2z" fill="#588DF3" /></svg><text x="97" y="72.5" class="title">AI &amp; Agentic Systems</text><text x="50" y="113" class="blurb">Multi-agent apps, RAG pipelines, and LLM orchestration.</text>
    <rect x="50" y="136" width="94" height="34" rx="10" class="chip" filter="url(#chipShadow)" />
    <rect x="56" y="141" width="24" height="24" rx="7" fill="#D97757" />
    <svg x="60.5" y="145.5" width="15" height="15" viewBox="0 0 24 24" preserveAspectRatio="xMidYMid meet"><g fill="#ffffff" fill-rule="nonzero"><path d="m4.7144 15.9555 4.7174-2.6471.079-.2307-.079-.1275h-.2307l-.7893-.0486-2.6956-.0729-2.3375-.0971-2.2646-.1214-.5707-.1215-.5343-.7042.0546-.3522.4797-.3218.686.0608 1.5179.1032 2.2767.1578 1.6514.0972 2.4468.255h.3886l.0546-.1579-.1336-.0971-.1032-.0972L6.973 9.8356l-2.55-1.6879-1.3356-.9714-.7225-.4918-.3643-.4614-.1578-1.0078.6557-.7225.8803.0607.2246.0607.8925.686 1.9064 1.4754 2.4893 1.8336.3643.3035.1457-.1032.0182-.0728-.164-.2733-1.3539-2.4467-1.445-2.4893-.6435-1.032-.17-.6194c-.0607-.255-.1032-.4674-.1032-.7285L6.287.1335 6.6997 0l.9957.1336.419.3642.6192 1.4147 1.0018 2.2282 1.5543 3.0296.4553.8985.2429.8318.091.255h.1579v-.1457l.1275-1.706.2368-2.0947.2307-2.6957.0789-.7589.3764-.9107.7468-.4918.5828.2793.4797.686-.0668.4433-.2853 1.8517-.5586 2.9021-.3643 1.9429h.2125l.2429-.2429.9835-1.3053 1.6514-2.0643.7286-.8196.85-.9046.5464-.4311h1.0321l.759 1.1293-.34 1.1657-1.0625 1.3478-.8804 1.1414-1.2628 1.7-.7893 1.36.0729.1093.1882-.0183 2.8535-.607 1.5421-.2794 1.8396-.3157.8318.3886.091.3946-.3278.8075-1.967.4857-2.3072.4614-3.4364.8136-.0425.0304.0486.0607 1.5482.1457.6618.0364h1.621l3.0175.2247.7892.522.4736.6376-.079.4857-1.2142.6193-1.6393-.3886-3.825-.9107-1.3113-.3279h-.1822v.1093l1.0929 1.0686 2.0035 1.8092 2.5075 2.3314.1275.5768-.3218.4554-.34-.0486-2.2039-1.6575-.85-.7468-1.9246-1.621h-.1275v.17l.4432.6496 2.3436 3.5214.1214 1.0807-.17.3521-.6071.2125-.6679-.1214-1.3721-1.9246L14.38 17.959l-1.1414-1.9428-.1397.079-.674 7.2552-.3156.3703-.7286.2793-.6071-.4614-.3218-.7468.3218-1.4753.3886-1.9246.3157-1.53.2853-1.9004.17-.6314-.0121-.0425-.1397.0182-1.4328 1.9672-2.1796 2.9446-1.7243 1.8456-.4128.164-.7164-.3704.0667-.6618.4008-.5889 2.386-3.0357 1.4389-1.882.929-1.0868-.0062-.1579h-.0546l-6.3385 4.1164-1.1293.1457-.4857-.4554.0608-.7467.2307-.2429 1.9064-1.3114Z"/></g></svg>
    <text x="89" y="157.5" class="chip-label">Claude</text>
    <rect x="153" y="136" width="118" height="34" rx="10" class="chip" filter="url(#chipShadow)" />
    <rect x="159" y="141" width="24" height="24" rx="7" fill="#1C3C3C" />
    <svg x="163.5" y="145.5" width="15" height="15" viewBox="0 0 24 24" preserveAspectRatio="xMidYMid meet"><g fill="#ffffff" fill-rule="nonzero"><path d="M13.796 0a6.93 6.93 0 0 0-4.91 2.019L5.451 5.455l3.273 3.27 3.432-3.432a2.284 2.284 0 0 1 3.277 0 2.28 2.28 0 0 1 0 3.275L12 12.001l3.273 3.273 3.433-3.435c2.692-2.692 2.692-7.127 0-9.82A6.92 6.92 0 0 0 13.796 0m-5.07 8.728-3.433 3.434c-2.692 2.693-2.692 7.126 0 9.819A6.92 6.92 0 0 0 10.203 24a6.93 6.93 0 0 0 4.911-2.02l3.432-3.432-3.271-3.272-3.433 3.433a2.284 2.284 0 0 1-3.277 0 2.28 2.28 0 0 1 0-3.276L12 12z"/></g></svg>
    <text x="192" y="157.5" class="chip-label">LangGraph</text>
    <rect x="280" y="136" width="94" height="34" rx="10" class="chip" filter="url(#chipShadow)" />
    <rect x="286" y="141" width="24" height="24" rx="7" fill="#3776AB" />
    <svg x="290.5" y="145.5" width="15" height="15" viewBox="0 0 24 24" preserveAspectRatio="xMidYMid meet"><g fill="#ffffff" fill-rule="nonzero"><path d="M14.25.18l.9.2.73.26.59.3.45.32.34.34.25.34.16.33.1.3.04.26.02.2-.01.13V8.5l-.05.63-.13.55-.21.46-.26.38-.3.31-.33.25-.35.19-.35.14-.33.1-.3.07-.26.04-.21.02H8.77l-.69.05-.59.14-.5.22-.41.27-.33.32-.27.35-.2.36-.15.37-.1.35-.07.32-.04.27-.02.21v3.06H3.17l-.21-.03-.28-.07-.32-.12-.35-.18-.36-.26-.36-.36-.35-.46-.32-.59-.28-.73-.21-.88-.14-1.05-.05-1.23.06-1.22.16-1.04.24-.87.32-.71.36-.57.4-.44.42-.33.42-.24.4-.16.36-.1.32-.05.24-.01h.16l.06.01h8.16v-.83H6.18l-.01-2.75-.02-.37.05-.34.11-.31.17-.28.25-.26.31-.23.38-.2.44-.18.51-.15.58-.12.64-.1.71-.06.77-.04.84-.02 1.27.05zm-6.3 1.98l-.23.33-.08.41.08.41.23.34.33.22.41.09.41-.09.33-.22.23-.34.08-.41-.08-.41-.23-.33-.33-.22-.41-.09-.41.09zm13.09 3.95l.28.06.32.12.35.18.36.27.36.35.35.47.32.59.28.73.21.88.14 1.04.05 1.23-.06 1.23-.16 1.04-.24.86-.32.71-.36.57-.4.45-.42.33-.42.24-.4.16-.36.09-.32.05-.24.02-.16-.01h-8.22v.82h5.84l.01 2.76.02.36-.05.34-.11.31-.17.29-.25.25-.31.24-.38.2-.44.17-.51.15-.58.13-.64.09-.71.07-.77.04-.84.01-1.27-.04-1.07-.14-.9-.2-.73-.25-.59-.3-.45-.33-.34-.34-.25-.34-.16-.33-.1-.3-.04-.25-.02-.2.01-.13v-5.34l.05-.64.13-.54.21-.46.26-.38.3-.32.33-.24.35-.2.35-.14.33-.1.3-.06.26-.04.21-.02.13-.01h5.84l.69-.05.59-.14.5-.21.41-.28.33-.32.27-.35.2-.36.15-.36.1-.35.07-.32.04-.28.02-.21V6.07h2.09l.14.01zm-6.47 14.25l-.23.33-.08.41.08.41.23.33.33.23.41.08.41-.08.33-.23.23-.33.08-.41-.08-.41-.23-.33-.33-.23-.41-.08-.41.08z"/></g></svg>
    <text x="319" y="157.5" class="chip-label">Python</text>
    <rect x="383" y="136" width="68" height="34" rx="10" class="ghost" />
    <text x="417" y="157" text-anchor="middle" class="ghost-label">+ more</text><rect x="511" y="26" width="463" height="168" rx="14" class="panel" /><rect x="535" y="50" width="34" height="34" rx="9" fill="#588DF3" fill-opacity="0.14" /><svg x="542" y="57" width="20" height="20" viewBox="0 0 24 24"><path d="M19.35 10.04C18.67 6.59 15.64 4 12 4 9.11 4 6.6 5.64 5.35 8.04 2.34 8.36 0 10.91 0 14c0 3.31 2.69 6 6 6h13c2.76 0 5-2.24 5-5 0-2.64-2.05-4.78-4.65-4.96z" fill="#588DF3" /></svg><text x="582" y="72.5" class="title">Cloud &amp; Platform</text><text x="535" y="113" class="blurb">Scalable, secure cloud-native architecture and delivery.</text>
    <rect x="535" y="136" width="80" height="34" rx="10" class="chip" filter="url(#chipShadow)" />
    <rect x="541" y="141" width="24" height="24" rx="7" fill="#4285F4" />
    <svg x="545.5" y="145.5" width="15" height="15" viewBox="0 0 24 24" preserveAspectRatio="xMidYMid meet"><g fill="#ffffff" fill-rule="nonzero"><path d="M12.19 2.38a9.344 9.344 0 0 0-9.234 6.893c.053-.02-.055.013 0 0-3.875 2.551-3.922 8.11-.247 10.941l.006-.007-.007.03a6.717 6.717 0 0 0 4.077 1.356h5.173l.03.03h5.192c6.687.053 9.376-8.605 3.835-12.35a9.365 9.365 0 0 0-2.821-4.552l-.043.043.006-.05A9.344 9.344 0 0 0 12.19 2.38zm-.358 4.146c1.244-.04 2.518.368 3.486 1.15a5.186 5.186 0 0 1 1.862 4.078v.518c3.53-.07 3.53 5.262 0 5.193h-5.193l-.008.009v-.04H6.785a2.59 2.59 0 0 1-1.067-.23h.001a2.597 2.597 0 1 1 3.437-3.437l3.013-3.012A6.747 6.747 0 0 0 8.11 8.24c.018-.01.04-.026.054-.023a5.186 5.186 0 0 1 3.67-1.69z"/></g></svg>
    <text x="574" y="157.5" class="chip-label">GCP</text>
    <rect x="624" y="136" width="83" height="34" rx="10" class="chip" filter="url(#chipShadow)" />
    <rect x="630" y="141" width="24" height="24" rx="7" fill="#FF9900" />
    <svg x="634.5" y="145.5" width="15" height="15" viewBox="0 0 24 24" preserveAspectRatio="xMidYMid meet"><g fill="#1f2328" fill-rule="nonzero"><path d="M6.763 10.036c0 .296.032.535.088.71.064.176.144.368.256.576.04.063.056.127.056.183 0 .08-.048.16-.152.24l-.503.335a.383.383 0 0 1-.208.072c-.08 0-.16-.04-.239-.112a2.47 2.47 0 0 1-.287-.375 6.18 6.18 0 0 1-.248-.471c-.622.734-1.405 1.101-2.347 1.101-.67 0-1.205-.191-1.596-.574-.391-.384-.59-.894-.59-1.533 0-.678.239-1.23.726-1.644.487-.415 1.133-.623 1.955-.623.272 0 .551.024.846.064.296.04.6.104.918.176v-.583c0-.607-.127-1.03-.375-1.277-.255-.248-.686-.367-1.3-.367-.28 0-.568.031-.863.103-.295.072-.583.16-.862.272a2.287 2.287 0 0 1-.28.104.488.488 0 0 1-.127.023c-.112 0-.168-.08-.168-.247v-.391c0-.128.016-.224.056-.28a.597.597 0 0 1 .224-.167c.279-.144.614-.264 1.005-.36a4.84 4.84 0 0 1 1.246-.151c.95 0 1.644.216 2.091.647.439.43.662 1.085.662 1.963v2.586zm-3.24 1.214c.263 0 .534-.048.822-.144.287-.096.543-.271.758-.51.128-.152.224-.32.272-.512.047-.191.08-.423.08-.694v-.335a6.66 6.66 0 0 0-.735-.136 6.02 6.02 0 0 0-.75-.048c-.535 0-.926.104-1.19.32-.263.215-.39.518-.39.917 0 .375.095.655.295.846.191.2.47.296.838.296zm6.41.862c-.144 0-.24-.024-.304-.08-.064-.048-.12-.16-.168-.311L7.586 5.55a1.398 1.398 0 0 1-.072-.32c0-.128.064-.2.191-.2h.783c.151 0 .255.025.31.08.065.048.113.16.16.312l1.342 5.284 1.245-5.284c.04-.16.088-.264.151-.312a.549.549 0 0 1 .32-.08h.638c.152 0 .256.025.32.08.063.048.12.16.151.312l1.261 5.348 1.381-5.348c.048-.16.104-.264.16-.312a.52.52 0 0 1 .311-.08h.743c.127 0 .2.065.2.2 0 .04-.009.08-.017.128a1.137 1.137 0 0 1-.056.2l-1.923 6.17c-.048.16-.104.263-.168.311a.51.51 0 0 1-.303.08h-.687c-.151 0-.255-.024-.32-.08-.063-.056-.119-.16-.15-.32l-1.238-5.148-1.23 5.14c-.04.16-.087.264-.15.32-.065.056-.177.08-.32.08zm10.256.215c-.415 0-.83-.048-1.229-.143-.399-.096-.71-.2-.918-.32-.128-.071-.215-.151-.247-.223a.563.563 0 0 1-.048-.224v-.407c0-.167.064-.247.183-.247.048 0 .096.008.144.024.048.016.12.048.2.08.271.12.566.215.878.279.319.064.63.096.95.096.502 0 .894-.088 1.165-.264a.86.86 0 0 0 .415-.758.777.777 0 0 0-.215-.559c-.144-.151-.416-.287-.807-.415l-1.157-.36c-.583-.183-1.014-.454-1.277-.813a1.902 1.902 0 0 1-.4-1.158c0-.335.073-.63.216-.886.144-.255.335-.479.575-.654.24-.184.51-.32.83-.415.32-.096.655-.136 1.006-.136.175 0 .359.008.535.032.183.024.35.056.518.088.16.04.312.08.455.127.144.048.256.096.336.144a.69.69 0 0 1 .24.2.43.43 0 0 1 .071.263v.375c0 .168-.064.256-.184.256a.83.83 0 0 1-.303-.096 3.652 3.652 0 0 0-1.532-.311c-.455 0-.815.071-1.062.223-.248.152-.375.383-.375.71 0 .224.08.416.24.567.159.152.454.304.877.44l1.134.358c.574.184.99.44 1.237.767.247.327.367.702.367 1.117 0 .343-.072.655-.207.926-.144.272-.336.511-.583.703-.248.2-.543.343-.886.447-.36.111-.734.167-1.142.167zM21.698 16.207c-2.626 1.94-6.442 2.969-9.722 2.969-4.598 0-8.74-1.7-11.87-4.526-.247-.223-.024-.527.272-.351 3.384 1.963 7.559 3.153 11.877 3.153 2.914 0 6.114-.607 9.06-1.852.439-.2.814.287.383.607zM22.792 14.961c-.336-.43-2.22-.207-3.074-.103-.255.032-.295-.192-.063-.36 1.5-1.053 3.967-.75 4.254-.399.287.36-.08 2.826-1.485 4.007-.215.184-.423.088-.327-.151.32-.79 1.03-2.57.695-2.994z"/></g></svg>
    <text x="663" y="157.5" class="chip-label">AWS</text>
    <rect x="716" y="136" width="122" height="34" rx="10" class="chip" filter="url(#chipShadow)" />
    <rect x="722" y="141" width="24" height="24" rx="7" fill="#326CE5" />
    <svg x="726.5" y="145.5" width="15" height="15" viewBox="0 0 24 24" preserveAspectRatio="xMidYMid meet"><g fill="#ffffff" fill-rule="nonzero"><path d="M10.204 14.35l.007.01-.999 2.413a5.171 5.171 0 0 1-2.075-2.597l2.578-.437.004.005a.44.44 0 0 1 .484.606zm-.833-2.129a.44.44 0 0 0 .173-.756l.002-.011L7.585 9.7a5.143 5.143 0 0 0-.73 3.255l2.514-.725.002-.009zm1.145-1.98a.44.44 0 0 0 .699-.337l.01-.005.15-2.62a5.144 5.144 0 0 0-3.01 1.442l2.147 1.523.004-.002zm.76 2.75l.723.349.722-.347.18-.78-.5-.623h-.804l-.5.623.179.779zm1.5-3.095a.44.44 0 0 0 .7.336l.008.003 2.134-1.513a5.188 5.188 0 0 0-2.992-1.442l.148 2.615.002.001zm10.876 5.97l-5.773 7.181a1.6 1.6 0 0 1-1.248.594l-9.261.003a1.6 1.6 0 0 1-1.247-.596l-5.776-7.18a1.583 1.583 0 0 1-.307-1.34L2.1 5.573c.108-.47.425-.864.863-1.073L11.305.513a1.606 1.606 0 0 1 1.385 0l8.345 3.985c.438.209.755.604.863 1.073l2.062 8.955c.108.47-.005.963-.308 1.34zm-3.289-2.057c-.042-.01-.103-.026-.145-.034-.174-.033-.315-.025-.479-.038-.35-.037-.638-.067-.895-.148-.105-.04-.18-.165-.216-.216l-.201-.059a6.45 6.45 0 0 0-.105-2.332 6.465 6.465 0 0 0-.936-2.163c.052-.047.15-.133.177-.159.008-.09.001-.183.094-.282.197-.185.444-.338.743-.522.142-.084.273-.137.415-.242.032-.024.076-.062.11-.089.24-.191.295-.52.123-.736-.172-.216-.506-.236-.745-.045-.034.027-.08.062-.111.088-.134.116-.217.23-.33.35-.246.25-.45.458-.673.609-.097.056-.239.037-.303.033l-.19.135a6.545 6.545 0 0 0-4.146-2.003l-.012-.223c-.065-.062-.143-.115-.163-.25-.022-.268.015-.557.057-.905.023-.163.061-.298.068-.475.001-.04-.001-.099-.001-.142 0-.306-.224-.555-.5-.555-.275 0-.499.249-.499.555l.001.014c0 .041-.002.092 0 .128.006.177.044.312.067.475.042.348.078.637.056.906a.545.545 0 0 1-.162.258l-.012.211a6.424 6.424 0 0 0-4.166 2.003 8.373 8.373 0 0 1-.18-.128c-.09.012-.18.04-.297-.029-.223-.15-.427-.358-.673-.608-.113-.12-.195-.234-.329-.349-.03-.026-.077-.062-.111-.088a.594.594 0 0 0-.348-.132.481.481 0 0 0-.398.176c-.172.216-.117.546.123.737l.007.005.104.083c.142.105.272.159.414.242.299.185.546.338.743.522.076.082.09.226.1.288l.16.143a6.462 6.462 0 0 0-1.02 4.506l-.208.06c-.055.072-.133.184-.215.217-.257.081-.546.11-.895.147-.164.014-.305.006-.48.039-.037.007-.09.02-.133.03l-.004.002-.007.002c-.295.071-.484.342-.423.608.061.267.349.429.645.365l.007-.001.01-.003.129-.029c.17-.046.294-.113.448-.172.33-.118.604-.217.87-.256.112-.009.23.069.288.101l.217-.037a6.5 6.5 0 0 0 2.88 3.596l-.09.218c.033.084.069.199.044.282-.097.252-.263.517-.452.813-.091.136-.185.242-.268.399-.02.037-.045.095-.064.134-.128.275-.034.591.213.71.248.12.556-.007.69-.282v-.002c.02-.039.046-.09.062-.127.07-.162.094-.301.144-.458.132-.332.205-.68.387-.897.05-.06.13-.082.215-.105l.113-.205a6.453 6.453 0 0 0 4.609.012l.106.192c.086.028.18.042.256.155.136.232.229.507.342.84.05.156.074.295.145.457.016.037.043.09.062.129.133.276.442.402.69.282.247-.118.341-.435.213-.71-.02-.039-.045-.096-.065-.134-.083-.156-.177-.261-.268-.398-.19-.296-.346-.541-.443-.793-.04-.13.007-.21.038-.294-.018-.022-.059-.144-.083-.202a6.499 6.499 0 0 0 2.88-3.622c.064.01.176.03.213.038.075-.05.144-.114.28-.104.266.039.54.138.87.256.154.06.277.128.448.173.036.01.088.019.13.028l.009.003.007.001c.297.064.584-.098.645-.365.06-.266-.128-.537-.423-.608zM16.4 9.701l-1.95 1.746v.005a.44.44 0 0 0 .173.757l.003.01 2.526.728a5.199 5.199 0 0 0-.108-1.674A5.208 5.208 0 0 0 16.4 9.7zm-4.013 5.325a.437.437 0 0 0-.404-.232.44.44 0 0 0-.372.233h-.002l-1.268 2.292a5.164 5.164 0 0 0 3.326.003l-1.27-2.296h-.01zm1.888-1.293a.44.44 0 0 0-.27.036.44.44 0 0 0-.214.572l-.003.004 1.01 2.438a5.15 5.15 0 0 0 2.081-2.615l-2.6-.44-.004.005z"/></g></svg>
    <text x="755" y="157.5" class="chip-label">Kubernetes</text>
    <rect x="847" y="136" width="68" height="34" rx="10" class="ghost" />
    <text x="881" y="157" text-anchor="middle" class="ghost-label">+ more</text><rect x="26" y="216" width="463" height="168" rx="14" class="panel" /><rect x="50" y="240" width="34" height="34" rx="9" fill="#588DF3" fill-opacity="0.14" /><svg x="57" y="247" width="20" height="20" viewBox="0 0 24 24"><path d="M12 3C7.58 3 4 4.34 4 6v12c0 1.66 3.58 3 8 3s8-1.34 8-3V6c0-1.66-3.58-3-8-3zm6 15c0 .31-2.13 1.5-6 1.5s-6-1.19-6-1.5v-2.23c1.61.78 3.92 1.23 6 1.23s4.39-.45 6-1.23V18zm0-4.55c-1.3.95-3.58 1.55-6 1.55s-4.7-.6-6-1.55V11.3c1.61.78 3.92 1.2 6 1.2s4.39-.42 6-1.2v2.15zM12 11C8.13 11 6 9.81 6 9.5V7.27C7.61 8.05 9.92 8.5 12 8.5s4.39-.45 6-1.23V9.5c0 .31-2.13 1.5-6 1.5z" fill="#588DF3" /></svg><text x="97" y="262.5" class="title">Data &amp; Backend</text><text x="50" y="303" class="blurb">Event-driven services and storage that scale.</text>
    <rect x="50" y="326" width="126" height="34" rx="10" class="chip" filter="url(#chipShadow)" />
    <rect x="56" y="331" width="24" height="24" rx="7" fill="#4169E1" />
    <svg x="60.5" y="335.5" width="15" height="15" viewBox="0 0 24 24" preserveAspectRatio="xMidYMid meet"><g fill="#ffffff" fill-rule="nonzero"><path d="M23.5594 14.7228a.5269.5269 0 0 0-.0563-.1191c-.139-.2632-.4768-.3418-1.0074-.2321-1.6533.3411-2.2935.1312-2.5256-.0191 1.342-2.0482 2.445-4.522 3.0411-6.8297.2714-1.0507.7982-3.5237.1222-4.7316a1.5641 1.5641 0 0 0-.1509-.235C21.6931.9086 19.8007.0248 17.5099.0005c-1.4947-.0158-2.7705.3461-3.1161.4794a9.449 9.449 0 0 0-.5159-.0816 8.044 8.044 0 0 0-1.3114-.1278c-1.1822-.0184-2.2038.2642-3.0498.8406-.8573-.3211-4.7888-1.645-7.2219.0788C.9359 2.1526.3086 3.8733.4302 6.3043c.0409.818.5069 3.334 1.2423 5.7436.4598 1.5065.9387 2.7019 1.4334 3.582.553.9942 1.1259 1.5933 1.7143 1.7895.4474.1491 1.1327.1441 1.8581-.7279.8012-.9635 1.5903-1.8258 1.9446-2.2069.4351.2355.9064.3625 1.39.3772a.0569.0569 0 0 0 .0004.0041 11.0312 11.0312 0 0 0-.2472.3054c-.3389.4302-.4094.5197-1.5002.7443-.3102.064-1.1344.2339-1.1464.8115-.0025.1224.0329.2309.0919.3268.2269.4231.9216.6097 1.015.6331 1.3345.3335 2.5044.092 3.3714-.6787-.017 2.231.0775 4.4174.3454 5.0874.2212.5529.7618 1.9045 2.4692 1.9043.2505 0 .5263-.0291.8296-.0941 1.7819-.3821 2.5557-1.1696 2.855-2.9059.1503-.8707.4016-2.8753.5388-4.1012.0169-.0703.0357-.1207.057-.1362.0007-.0005.0697-.0471.4272.0307a.3673.3673 0 0 0 .0443.0068l.2539.0223.0149.001c.8468.0384 1.9114-.1426 2.5312-.4308.6438-.2988 1.8057-1.0323 1.5951-1.6698zM2.371 11.8765c-.7435-2.4358-1.1779-4.8851-1.2123-5.5719-.1086-2.1714.4171-3.6829 1.5623-4.4927 1.8367-1.2986 4.8398-.5408 6.108-.13-.0032.0032-.0066.0061-.0098.0094-2.0238 2.044-1.9758 5.536-1.9708 5.7495-.0002.0823.0066.1989.0162.3593.0348.5873.0996 1.6804-.0735 2.9184-.1609 1.1504.1937 2.2764.9728 3.0892.0806.0841.1648.1631.2518.2374-.3468.3714-1.1004 1.1926-1.9025 2.1576-.5677.6825-.9597.5517-1.0886.5087-.3919-.1307-.813-.5871-1.2381-1.3223-.4796-.839-.9635-2.0317-1.4155-3.5126zm6.0072 5.0871c-.1711-.0428-.3271-.1132-.4322-.1772.0889-.0394.2374-.0902.4833-.1409 1.2833-.2641 1.4815-.4506 1.9143-1.0002.0992-.126.2116-.2687.3673-.4426a.3549.3549 0 0 0 .0737-.1298c.1708-.1513.2724-.1099.4369-.0417.156.0646.3078.26.3695.4752.0291.1016.0619.2945-.0452.4444-.9043 1.2658-2.2216 1.2494-3.1676 1.0128zm2.094-3.988-.0525.141c-.133.3566-.2567.6881-.3334 1.003-.6674-.0021-1.3168-.2872-1.8105-.8024-.6279-.6551-.9131-1.5664-.7825-2.5004.1828-1.3079.1153-2.4468.079-3.0586-.005-.0857-.0095-.1607-.0122-.2199.2957-.2621 1.6659-.9962 2.6429-.7724.4459.1022.7176.4057.8305.928.5846 2.7038.0774 3.8307-.3302 4.7363-.084.1866-.1633.3629-.2311.5454zm7.3637 4.5725c-.0169.1768-.0358.376-.0618.5959l-.146.4383a.3547.3547 0 0 0-.0182.1077c-.0059.4747-.054.6489-.115.8693-.0634.2292-.1353.4891-.1794 1.0575-.11 1.4143-.8782 2.2267-2.4172 2.5565-1.5155.3251-1.7843-.4968-2.0212-1.2217a6.5824 6.5824 0 0 0-.0769-.2266c-.2154-.5858-.1911-1.4119-.1574-2.5551.0165-.5612-.0249-1.9013-.3302-2.6462.0044-.2932.0106-.5909.019-.8918a.3529.3529 0 0 0-.0153-.1126 1.4927 1.4927 0 0 0-.0439-.208c-.1226-.4283-.4213-.7866-.7797-.9351-.1424-.059-.4038-.1672-.7178-.0869.067-.276.1831-.5875.309-.9249l.0529-.142c.0595-.16.134-.3257.213-.5012.4265-.9476 1.0106-2.2453.3766-5.1772-.2374-1.0981-1.0304-1.6343-2.2324-1.5098-.7207.0746-1.3799.3654-1.7088.5321a5.6716 5.6716 0 0 0-.1958.1041c.0918-1.1064.4386-3.1741 1.7357-4.4823a4.0306 4.0306 0 0 1 .3033-.276.3532.3532 0 0 0 .1447-.0644c.7524-.5706 1.6945-.8506 2.802-.8325.4091.0067.8017.0339 1.1742.081 1.939.3544 3.2439 1.4468 4.0359 2.3827.8143.9623 1.2552 1.9315 1.4312 2.4543-1.3232-.1346-2.2234.1268-2.6797.779-.9926 1.4189.543 4.1729 1.2811 5.4964.1353.2426.2522.4522.2889.5413.2403.5825.5515.9713.7787 1.2552.0696.087.1372.1714.1885.245-.4008.1155-1.1208.3825-1.0552 1.717-.0123.1563-.0423.4469-.0834.8148-.0461.2077-.0702.4603-.0994.7662zm.8905-1.6211c-.0405-.8316.2691-.9185.5967-1.0105a2.8566 2.8566 0 0 0 .135-.0406 1.202 1.202 0 0 0 .1342.103c.5703.3765 1.5823.4213 3.0068.1344-.2016.1769-.5189.3994-.9533.6011-.4098.1903-1.0957.333-1.7473.3636-.7197.0336-1.0859-.0807-1.1721-.151zm.5695-9.2712c-.0059.3508-.0542.6692-.1054 1.0017-.055.3576-.112.7274-.1264 1.1762-.0142.4368.0404.8909.0932 1.3301.1066.887.216 1.8003-.2075 2.7014a3.5272 3.5272 0 0 1-.1876-.3856c-.0527-.1276-.1669-.3326-.3251-.6162-.6156-1.1041-2.0574-3.6896-1.3193-4.7446.3795-.5427 1.3408-.5661 2.1781-.463zm.2284 7.0137a12.3762 12.3762 0 0 0-.0853-.1074l-.0355-.0444c.7262-1.1995.5842-2.3862.4578-3.4385-.0519-.4318-.1009-.8396-.0885-1.2226.0129-.4061.0666-.7543.1185-1.0911.0639-.415.1288-.8443.1109-1.3505.0134-.0531.0188-.1158.0118-.1902-.0457-.4855-.5999-1.938-1.7294-3.253-.6076-.7073-1.4896-1.4972-2.6889-2.0395.5251-.1066 1.2328-.2035 2.0244-.1859 2.0515.0456 3.6746.8135 4.8242 2.2824a.908.908 0 0 1 .0667.1002c.7231 1.3556-.2762 6.2751-2.9867 10.5405zm-8.8166-6.1162c-.025.1794-.3089.4225-.6211.4225a.5821.5821 0 0 1-.0809-.0056c-.1873-.026-.3765-.144-.5059-.3156-.0458-.0605-.1203-.178-.1055-.2844.0055-.0401.0261-.0985.0925-.1488.1182-.0894.3518-.1226.6096-.0867.3163.0441.6426.1938.6113.4186zm7.9305-.4114c.0111.0792-.049.201-.1531.3102-.0683.0717-.212.1961-.4079.2232a.5456.5456 0 0 1-.075.0052c-.2935 0-.5414-.2344-.5607-.3717-.024-.1765.2641-.3106.5611-.352.297-.0414.6111.0088.6356.1851z"/></g></svg>
    <text x="89" y="347.5" class="chip-label">PostgreSQL</text>
    <rect x="185" y="326" width="87" height="34" rx="10" class="chip" filter="url(#chipShadow)" />
    <rect x="191" y="331" width="24" height="24" rx="7" fill="#231F20" />
    <svg x="195.5" y="335.5" width="15" height="15" viewBox="0 0 24 24" preserveAspectRatio="xMidYMid meet"><g fill="#ffffff" fill-rule="nonzero"><path d="M9.71 2.136a1.43 1.43 0 0 0-2.047 0h-.007a1.48 1.48 0 0 0-.421 1.042c0 .41.161.777.422 1.039l.007.007c.257.264.616.426 1.019.426.404 0 .766-.162 1.027-.426l.003-.007c.261-.262.421-.629.421-1.039 0-.408-.159-.777-.421-1.042H9.71zM8.683 22.295c.404 0 .766-.167 1.027-.429l.003-.008c.261-.261.421-.631.421-1.036 0-.41-.159-.778-.421-1.044H9.71a1.42 1.42 0 0 0-1.027-.432 1.4 1.4 0 0 0-1.02.432h-.007c-.26.266-.422.634-.422 1.044 0 .406.161.775.422 1.036l.007.008c.258.262.617.429 1.02.429zm7.89-4.462c.359-.096.683-.33.882-.684l.027-.052a1.47 1.47 0 0 0 .114-1.067 1.454 1.454 0 0 0-.675-.896l-.021-.014a1.425 1.425 0 0 0-1.078-.132c-.36.091-.684.335-.881.686-.2.349-.241.75-.146 1.119.099.363.33.691.675.896h.002c.346.203.737.239 1.101.144zm-6.405-7.342a2.083 2.083 0 0 0-1.485-.627c-.58 0-1.103.242-1.482.627-.378.385-.612.916-.612 1.507s.233 1.124.612 1.514a2.08 2.08 0 0 0 2.967 0c.379-.39.612-.923.612-1.514s-.233-1.122-.612-1.507zm-.835-2.51c.843.141 1.6.552 2.178 1.144h.004c.092.093.182.196.265.299l1.446-.851a3.176 3.176 0 0 1-.047-1.808 3.149 3.149 0 0 1 1.456-1.926l.025-.016a3.062 3.062 0 0 1 2.345-.306c.77.21 1.465.721 1.898 1.482v.002c.431.757.518 1.626.313 2.408a3.145 3.145 0 0 1-1.456 1.928l-.198.118h-.02a3.095 3.095 0 0 1-2.154.201 3.127 3.127 0 0 1-1.514-.944l-1.444.848a4.162 4.162 0 0 1 0 2.879l1.444.846c.413-.47.939-.789 1.514-.944a3.041 3.041 0 0 1 2.371.319l.048.023v.002a3.17 3.17 0 0 1 1.408 1.906 3.215 3.215 0 0 1-.313 2.405l-.026.053-.003-.005a3.147 3.147 0 0 1-1.867 1.436 3.096 3.096 0 0 1-2.371-.318v-.006a3.156 3.156 0 0 1-1.456-1.927 3.175 3.175 0 0 1 .047-1.805l-1.446-.848a3.905 3.905 0 0 1-.265.294l-.004.005a3.938 3.938 0 0 1-2.178 1.138v1.699a3.09 3.09 0 0 1 1.56.862l.002.004c.565.572.914 1.368.914 2.243 0 .873-.35 1.664-.914 2.239l-.002.009a3.1 3.1 0 0 1-2.21.931 3.1 3.1 0 0 1-2.206-.93h-.002v-.009a3.186 3.186 0 0 1-.916-2.239c0-.875.35-1.672.916-2.243v-.004h.002a3.1 3.1 0 0 1 1.558-.862v-1.699a3.926 3.926 0 0 1-2.176-1.138l-.006-.005a4.098 4.098 0 0 1-1.173-2.874c0-1.122.452-2.136 1.173-2.872h.006a3.947 3.947 0 0 1 2.176-1.144V6.289a3.137 3.137 0 0 1-1.558-.864h-.002v-.004a3.192 3.192 0 0 1-.916-2.243c0-.871.35-1.669.916-2.243l.002-.002A3.084 3.084 0 0 1 8.683 0c.861 0 1.641.355 2.21.932v.002h.002c.565.574.914 1.372.914 2.243 0 .876-.35 1.667-.914 2.243l-.002.005a3.142 3.142 0 0 1-1.56.864v1.692zm8.121-1.129l-.012-.019a1.452 1.452 0 0 0-.87-.668 1.43 1.43 0 0 0-1.103.146h.002c-.347.2-.58.529-.677.896-.095.365-.054.768.146 1.119l.007.009c.2.347.519.579.874.673.357.103.755.059 1.098-.144l.019-.009a1.47 1.47 0 0 0 .657-.885 1.493 1.493 0 0 0-.141-1.118"/></g></svg>
    <text x="224" y="347.5" class="chip-label">Kafka</text>
    <rect x="281" y="326" width="87" height="34" rx="10" class="chip" filter="url(#chipShadow)" />
    <rect x="287" y="331" width="24" height="24" rx="7" fill="#FF4438" />
    <svg x="291.5" y="335.5" width="15" height="15" viewBox="0 0 24 24" preserveAspectRatio="xMidYMid meet"><g fill="#ffffff" fill-rule="nonzero"><path d="M22.71 13.145c-1.66 2.092-3.452 4.483-7.038 4.483-3.203 0-4.397-2.825-4.48-5.12.701 1.484 2.073 2.685 4.214 2.63 4.117-.133 6.94-3.852 6.94-7.239 0-4.05-3.022-6.972-8.268-6.972-3.752 0-8.4 1.428-11.455 3.685C2.59 6.937 3.885 9.958 4.35 9.626c2.648-1.904 4.748-3.13 6.784-3.744C8.12 9.244.886 17.05 0 18.425c.1 1.261 1.66 4.648 2.424 4.648.232 0 .431-.133.664-.365a100.49 100.49 0 0 0 5.54-6.765c.222 3.104 1.748 6.898 6.014 6.898 3.819 0 7.604-2.756 9.33-8.965.2-.764-.73-1.361-1.261-.73zm-4.349-5.013c0 1.959-1.926 2.922-3.685 2.922-.941 0-1.664-.247-2.235-.568 1.051-1.592 2.092-3.225 3.21-4.973 1.972.334 2.71 1.43 2.71 2.619z"/></g></svg>
    <text x="320" y="347.5" class="chip-label">Redis</text>
    <rect x="377" y="326" width="68" height="34" rx="10" class="ghost" />
    <text x="411" y="347" text-anchor="middle" class="ghost-label">+ more</text><rect x="511" y="216" width="463" height="168" rx="14" class="panel" /><rect x="535" y="240" width="34" height="34" rx="9" fill="#588DF3" fill-opacity="0.14" /><svg x="542" y="247" width="20" height="20" viewBox="0 0 24 24"><path d="M4 6h18V4H4c-1.1 0-2 .9-2 2v11H0v3h14v-3H4V6zm19 2h-6c-.55 0-1 .45-1 1v10c0 .55.45 1 1 1h6c.55 0 1-.45 1-1V9c0-.55-.45-1-1-1zm-1 9h-4v-7h4v7z" fill="#588DF3" /></svg><text x="582" y="262.5" class="title">Product Engineering</text><text x="535" y="303" class="blurb">Web &amp; mobile products, from prototype to production.</text>
    <rect x="535" y="326" width="96" height="34" rx="10" class="chip" filter="url(#chipShadow)" />
    <rect x="541" y="331" width="24" height="24" rx="7" fill="#000000" />
    <svg x="545.5" y="335.5" width="15" height="15" viewBox="0 0 24 24" preserveAspectRatio="xMidYMid meet"><g fill="#ffffff" fill-rule="nonzero"><path d="M18.665 21.978C16.758 23.255 14.465 24 12 24 5.377 24 0 18.623 0 12S5.377 0 12 0s12 5.377 12 12c0 3.583-1.574 6.801-4.067 9.001L9.219 7.2H7.2v9.596h1.615V9.251l9.85 12.727Zm-3.332-8.533 1.6 2.061V7.2h-1.6v6.245Z"/></g></svg>
    <text x="574" y="347.5" class="chip-label">Next.js</text>
    <rect x="640" y="326" width="96" height="34" rx="10" class="chip" filter="url(#chipShadow)" />
    <rect x="646" y="331" width="24" height="24" rx="7" fill="#02569B" />
    <svg x="650.5" y="335.5" width="15" height="15" viewBox="0 0 24 24" preserveAspectRatio="xMidYMid meet"><g fill="#ffffff" fill-rule="nonzero"><path d="M14.314 0L2.3 12 6 15.7 21.684.013h-7.357zm.014 11.072L7.857 17.53l6.47 6.47H21.7l-6.46-6.468 6.46-6.46h-7.37z"/></g></svg>
    <text x="679" y="347.5" class="chip-label">Flutter</text>
    <rect x="745" y="326" width="120" height="34" rx="10" class="chip" filter="url(#chipShadow)" />
    <rect x="751" y="331" width="24" height="24" rx="7" fill="#3178C6" />
    <svg x="755.5" y="335.5" width="15" height="15" viewBox="0 0 24 24" preserveAspectRatio="xMidYMid meet"><g fill="#ffffff" fill-rule="nonzero"><path d="M1.125 0C.502 0 0 .502 0 1.125v21.75C0 23.498.502 24 1.125 24h21.75c.623 0 1.125-.502 1.125-1.125V1.125C24 .502 23.498 0 22.875 0zm17.363 9.75c.612 0 1.154.037 1.627.111a6.38 6.38 0 0 1 1.306.34v2.458a3.95 3.95 0 0 0-.643-.361 5.093 5.093 0 0 0-.717-.26 5.453 5.453 0 0 0-1.426-.2c-.3 0-.573.028-.819.086a2.1 2.1 0 0 0-.623.242c-.17.104-.3.229-.393.374a.888.888 0 0 0-.14.49c0 .196.053.373.156.529.104.156.252.304.443.444s.423.276.696.41c.273.135.582.274.926.416.47.197.892.407 1.266.628.374.222.695.473.963.753.268.279.472.598.614.957.142.359.214.776.214 1.253 0 .657-.125 1.21-.373 1.656a3.033 3.033 0 0 1-1.012 1.085 4.38 4.38 0 0 1-1.487.596c-.566.12-1.163.18-1.79.18a9.916 9.916 0 0 1-1.84-.164 5.544 5.544 0 0 1-1.512-.493v-2.63a5.033 5.033 0 0 0 3.237 1.2c.333 0 .624-.03.872-.09.249-.06.456-.144.623-.25.166-.108.29-.234.373-.38a1.023 1.023 0 0 0-.074-1.089 2.12 2.12 0 0 0-.537-.5 5.597 5.597 0 0 0-.807-.444 27.72 27.72 0 0 0-1.007-.436c-.918-.383-1.602-.852-2.053-1.405-.45-.553-.676-1.222-.676-2.005 0-.614.123-1.141.369-1.582.246-.441.58-.804 1.004-1.089a4.494 4.494 0 0 1 1.47-.629 7.536 7.536 0 0 1 1.77-.201zm-15.113.188h9.563v2.166H9.506v9.646H6.789v-9.646H3.375z"/></g></svg>
    <text x="784" y="347.5" class="chip-label">TypeScript</text>
    <rect x="874" y="326" width="68" height="34" rx="10" class="ghost" />
    <text x="908" y="347" text-anchor="middle" class="ghost-label">+ more</text>
</svg>