<svg role="img" viewBox="0 0 24 24" xmlns="http://www.w3.org/2000/svg" fill-rule="evenodd"><title>Google Agent Development Kit</title><path d="M8 2.6H16A4.4 4.4 0 0 1 16 11.4H8A4.4 4.4 0 0 1 8 2.6ZM8 4.6H16A2.4 2.4 0 0 1 16 9.4H8A2.4 2.4 0 0 1 8 4.6Z"/><circle cx="10.2" cy="7" r="1.05"/><circle cx="13.8" cy="7" r="1.05"/><path d="M7.4 13.8H5.2V20.8H7.4V19.2H6.7V15.4H7.4Z"/><path d="M13.2 14 10.1 17.3 13.2 20.6 14.3 19.5 12.3 17.3 14.3 15.1Z"/><path d="M15.6 14 18.7 17.3 15.6 20.6 14.5 19.5 16.5 17.3 14.5 15.1Z"/></svg>
